<?xml version="1.0" encoding="UTF-8"?>
<svg width="74px" height="70px" viewBox="0 0 74 70" version="1.1" xmlns="http://www.w3.org/2000/svg" xmlns:xlink="http://www.w3.org/1999/xlink">
    <!-- Generator: Sketch 43.1 (39012) - http://www.bohemiancoding.com/sketch -->
    <title>icon_heart</title>
    <desc>Created with Sketch.</desc>
    <defs></defs>
    <g id="Page-1" stroke="none" stroke-width="1" fill="none" fill-rule="evenodd">
        <g id="SANGHA_home" transform="translate(-679.000000, -916.000000)" stroke="#DE0A75" stroke-width="2">
            <g id="/////-Benefits" transform="translate(256.000000, 917.000000)">
                <g id="Benefit-2" transform="translate(319.000000, 0.000000)">
                    <path d="M139.687422,33.0083116 C141.461508,34.7819762 141.461508,37.6526601 139.687422,39.4240767 L112.747853,66.3572516 C110.976015,68.1309161 108.102401,68.1309161 106.330564,66.3572516 C104.556479,64.585835 104.556479,61.7151511 106.330564,59.9414865 L133.270134,33.0083116 C135.041971,31.2368951 137.915585,31.2368951 139.687422,33.0083116 M107.699916,31.0682958 C113.854126,43.9492817 129.400423,56.3289657 136.890258,61.7780948 C139.388368,63.5944712 142.711687,63.5944712 145.209798,61.7780948 C152.699632,56.3289657 168.245929,43.9492817 174.40014,31.0682958 C177.784169,24.9065536 178.229377,16.8227796 173.543452,8.75474148 C172.288775,6.59442255 170.48321,4.77804617 168.356106,3.52591543 C157.695853,-2.7527222 146.918676,0.457408318 141.050028,7.90275305 C135.181379,0.457408318 124.404202,-2.7527222 113.7417,3.52591543 C111.616845,4.77804617 109.809031,6.59442255 108.556603,8.75474148 C103.870679,16.8227796 104.315886,24.9065536 107.699916,31.0682958" id="icon_heart"></path>
                </g>
            </g>
        </g>
    </g>
</svg>