<?xml version="1.0" encoding="UTF-8"?>
<svg width="60px" height="60px" viewBox="0 0 60 60" version="1.1" xmlns="http://www.w3.org/2000/svg" xmlns:xlink="http://www.w3.org/1999/xlink">
    <!-- Generator: Sketch 43.1 (39012) - http://www.bohemiancoding.com/sketch -->
    <title>icon_grow</title>
    <desc>Created with Sketch.</desc>
    <defs></defs>
    <g id="Page-1" stroke="none" stroke-width="1" fill="none" fill-rule="evenodd">
        <g id="SANGHA_home" transform="translate(-377.000000, -918.000000)" stroke="#6506C0" stroke-width="2">
            <g id="/////-Benefits" transform="translate(256.000000, 917.000000)">
                <g id="Benefit-1" transform="translate(0.000000, 2.000000)">
                    <path d="M128.768894,43.70854 L123.558103,48.9231787 C121.480632,50.9990112 121.480632,54.3672933 123.558103,56.4431257 C125.63294,58.5189581 128.997968,58.5189581 131.072806,56.4431257 L136.28623,51.2284869 C138.3637,49.1526545 138.3637,45.7843724 136.28623,43.70854 C134.211392,41.6300699 130.846364,41.6300699 128.768894,43.70854 M178.356982,1.7355776 L178.417542,1.67754925 C177.461747,0.69370491 176.192621,0.0342918141 174.712851,0.0316541617 L143.205865,2.33313871e-06 C140.24106,-0.00263531924 137.839725,2.23145625 137.842358,5.19353988 C137.847624,8.1556235 140.254225,10.5611625 143.219031,10.5638001 L161.80831,10.5822637 L142.034161,30.4701627 C139.956691,32.5459951 139.959324,35.9090019 142.042061,37.987472 C144.114265,40.0606667 147.474027,40.0606667 149.548865,37.987472 L169.446766,18.3053099 L169.446766,37.0089029 C169.446766,39.9657112 171.845468,42.3606996 174.805007,42.3606996 C177.761914,42.3606996 180,39.9657112 180,37.0089029 L180,5.42829094 C180,3.9512056 179.339106,2.68777011 178.356982,1.7355776" id="icon_grow"></path>
                </g>
            </g>
        </g>
    </g>
</svg>