<?xml version="1.0" encoding="UTF-8"?>
<svg width="60px" height="60px" viewBox="0 0 60 60" version="1.1" xmlns="http://www.w3.org/2000/svg" xmlns:xlink="http://www.w3.org/1999/xlink">
    <!-- Generator: Sketch 46.2 (44496) - http://www.bohemiancoding.com/sketch -->
    <title>benefits-1</title>
    <desc>Created with Sketch.</desc>
    <defs></defs>
    <g id="Page-1" stroke="none" stroke-width="1" fill="none" fill-rule="evenodd">
        <g id="benefits-1" transform="translate(1.000000, 1.000000)" stroke="#1b1b1c" stroke-width="2">
            <path d="M6.768894,43.70854 L1.558103,48.9231787 C-0.519368,50.9990112 -0.519368,54.3672933 1.558103,56.4431257 C3.63294,58.5189581 6.997968,58.5189581 9.072806,56.4431257 L14.28623,51.2284869 C16.3637,49.1526545 16.3637,45.7843724 14.28623,43.70854 C12.211392,41.6300699 8.846364,41.6300699 6.768894,43.70854 M56.356982,1.7355776 L56.417542,1.67754925 C55.461747,0.69370491 54.192621,0.0342918141 52.712851,0.0316541617 L21.205865,2.33313871e-06 C18.24106,-0.00263531924 15.839725,2.23145625 15.842358,5.19353988 C15.847624,8.1556235 18.254225,10.5611625 21.219031,10.5638001 L39.80831,10.5822637 L20.034161,30.4701627 C17.956691,32.5459951 17.959324,35.9090019 20.042061,37.987472 C22.114265,40.0606667 25.474027,40.0606667 27.548865,37.987472 L47.446766,18.3053099 L47.446766,37.0089029 C47.446766,39.9657112 49.845468,42.3606996 52.805007,42.3606996 C55.761914,42.3606996 58,39.9657112 58,37.0089029 L58,5.42829094 C58,3.9512056 57.339106,2.68777011 56.356982,1.7355776" id="icon_grow"></path>
        </g>
    </g>
</svg>