<?xml version="1.0" encoding="UTF-8"?>
<svg width="74px" height="70px" viewBox="0 0 74 70" version="1.1" xmlns="http://www.w3.org/2000/svg" xmlns:xlink="http://www.w3.org/1999/xlink">
    <!-- Generator: Sketch 46.2 (44496) - http://www.bohemiancoding.com/sketch -->
    <title>benefits-2</title>
    <desc>Created with Sketch.</desc>
    <defs></defs>
    <g id="Page-1" stroke="none" stroke-width="1" fill="none" fill-rule="evenodd">
        <g id="benefits-2" transform="translate(1.000000, 1.000000)" stroke="#1b1b1c" stroke-width="2">
            <path d="M34.687422,33.0083116 C36.461508,34.7819762 36.461508,37.6526601 34.687422,39.4240767 L7.747853,66.3572516 C5.976015,68.1309161 3.102401,68.1309161 1.330564,66.3572516 C-0.443521,64.585835 -0.443521,61.7151511 1.330564,59.9414865 L28.270134,33.0083116 C30.041971,31.2368951 32.915585,31.2368951 34.687422,33.0083116 M2.699916,31.0682958 C8.854126,43.9492817 24.400423,56.3289657 31.890258,61.7780948 C34.388368,63.5944712 37.711687,63.5944712 40.209798,61.7780948 C47.699632,56.3289657 63.245929,43.9492817 69.40014,31.0682958 C72.784169,24.9065536 73.229377,16.8227796 68.543452,8.75474148 C67.288775,6.59442255 65.48321,4.77804617 63.356106,3.52591543 C52.695853,-2.7527222 41.918676,0.457408318 36.050028,7.90275305 C30.181379,0.457408318 19.404202,-2.7527222 8.7417,3.52591543 C6.616845,4.77804617 4.809031,6.59442255 3.556603,8.75474148 C-1.129321,16.8227796 -0.684114,24.9065536 2.699916,31.0682958" id="icon_heart"></path>
        </g>
    </g>
</svg>