<?xml version="1.0" encoding="UTF-8"?>
<svg width="102px" height="67px" viewBox="0 0 102 67" version="1.1" xmlns="http://www.w3.org/2000/svg" xmlns:xlink="http://www.w3.org/1999/xlink">
    <!-- Generator: Sketch 43.1 (39012) - http://www.bohemiancoding.com/sketch -->
    <title>icon_happy</title>
    <desc>Created with Sketch.</desc>
    <defs></defs>
    <g id="Page-1" stroke="none" stroke-width="1" fill="none" fill-rule="evenodd">
        <g id="SANGHA_home" transform="translate(-990.000000, -916.000000)" stroke="#6FEC85" stroke-width="2">
            <g id="/////-Benefits" transform="translate(256.000000, 917.000000)">
                <g id="Benefit-3" transform="translate(639.000000, 0.000000)">
                    <path d="M195.754301,14.2617824 C192.983793,5.98559116 184.937251,0 175.442154,0 C165.947058,0 157.903459,5.98559116 155.130008,14.2617824 C154.081867,17.391484 156.519678,20.6095121 159.92908,20.6095121 L160.576808,20.6095121 C162.802635,20.6095121 164.64277,19.1580136 165.393545,17.132393 C166.868597,13.151813 170.810902,10.3047561 175.442154,10.3047561 C180.073406,10.3047561 184.015711,13.151813 185.493708,17.132393 C186.244483,19.1580136 188.081674,20.6095121 190.307501,20.6095121 L190.958173,20.6095121 C194.364631,20.6095121 196.802441,17.391484 195.754301,14.2617824 M161.516012,44.1632403 L160.865341,44.1632403 C158.639513,44.1632403 156.802323,45.6147388 156.051548,47.6374152 C154.573551,51.6179952 150.631246,54.4679963 145.999994,54.4679963 C141.368742,54.4679963 137.426437,51.6179952 135.951385,47.6374152 C135.20061,45.6147388 133.360475,44.1632403 131.134647,44.1632403 L130.48692,44.1632403 C127.077518,44.1632403 124.639707,47.3783242 125.687848,50.51097 C128.461299,58.7871612 136.504897,64.7727524 145.999994,64.7727524 C155.495091,64.7727524 163.541633,58.7871612 166.31214,50.51097 C167.360281,47.3783242 164.92247,44.1632403 161.516012,44.1632403 M131.423181,20.6095121 L132.073852,20.6095121 C135.48031,20.6095121 137.918121,17.391484 136.86998,14.2617824 C134.099473,5.98559116 126.052931,0 116.557834,0 C107.065681,0 99.019139,5.98559116 96.2456875,14.2617824 C95.1975466,17.391484 97.6353575,20.6095121 101.04476,20.6095121 L101.692487,20.6095121 C103.918314,20.6095121 105.758449,19.1580136 106.509225,17.132393 C107.984277,13.151813 111.926582,10.3047561 116.557834,10.3047561 C121.189086,10.3047561 125.131391,13.151813 126.609387,17.132393 C127.360162,19.1580136 129.197353,20.6095121 131.423181,20.6095121" id="icon_happy"></path>
                </g>
            </g>
        </g>
    </g>
</svg>