<?xml version="1.0" encoding="UTF-8"?>
<svg width="102px" height="67px" viewBox="0 0 102 67" version="1.1" xmlns="http://www.w3.org/2000/svg" xmlns:xlink="http://www.w3.org/1999/xlink">
    <!-- Generator: Sketch 46.2 (44496) - http://www.bohemiancoding.com/sketch -->
    <title>benefits-3</title>
    <desc>Created with Sketch.</desc>
    <defs></defs>
    <g id="Page-1" stroke="none" stroke-width="1" fill="none" fill-rule="evenodd">
        <g id="benefits-3" transform="translate(1.000000, 1.000000)" stroke="#000000" stroke-width="2">
            <path d="M99.754301,14.2617824 C96.983793,5.98559116 88.937251,0 79.442154,0 C69.947058,0 61.903459,5.98559116 59.130008,14.2617824 C58.081867,17.391484 60.519678,20.6095121 63.92908,20.6095121 L64.576808,20.6095121 C66.802635,20.6095121 68.64277,19.1580136 69.393545,17.132393 C70.868597,13.151813 74.810902,10.3047561 79.442154,10.3047561 C84.073406,10.3047561 88.015711,13.151813 89.493708,17.132393 C90.244483,19.1580136 92.081674,20.6095121 94.307501,20.6095121 L94.958173,20.6095121 C98.364631,20.6095121 100.802441,17.391484 99.754301,14.2617824 M65.516012,44.1632403 L64.865341,44.1632403 C62.639513,44.1632403 60.802323,45.6147388 60.051548,47.6374152 C58.573551,51.6179952 54.631246,54.4679963 49.999994,54.4679963 C45.368742,54.4679963 41.426437,51.6179952 39.951385,47.6374152 C39.20061,45.6147388 37.360475,44.1632403 35.134647,44.1632403 L34.48692,44.1632403 C31.077518,44.1632403 28.639707,47.3783242 29.687848,50.51097 C32.461299,58.7871612 40.504897,64.7727524 49.999994,64.7727524 C59.495091,64.7727524 67.541633,58.7871612 70.31214,50.51097 C71.360281,47.3783242 68.92247,44.1632403 65.516012,44.1632403 M35.423181,20.6095121 L36.073852,20.6095121 C39.48031,20.6095121 41.918121,17.391484 40.86998,14.2617824 C38.099473,5.98559116 30.052931,0 20.557834,0 C11.065681,0 3.019139,5.98559116 0.2456875,14.2617824 C-0.8024534,17.391484 1.6353575,20.6095121 5.04476,20.6095121 L5.692487,20.6095121 C7.918314,20.6095121 9.758449,19.1580136 10.509225,17.132393 C11.984277,13.151813 15.926582,10.3047561 20.557834,10.3047561 C25.189086,10.3047561 29.131391,13.151813 30.609387,17.132393 C31.360162,19.1580136 33.197353,20.6095121 35.423181,20.6095121" id="icon_happy"></path>
        </g>
    </g>
</svg>