<?xml version="1.0" encoding="UTF-8"?>
<svg width="86px" height="21px" viewBox="0 0 86 21" version="1.1" xmlns="http://www.w3.org/2000/svg" xmlns:xlink="http://www.w3.org/1999/xlink">
    <!-- Generator: Sketch 43.1 (39012) - http://www.bohemiancoding.com/sketch -->
    <title>cuchitis</title>
    <desc>Created with Sketch.</desc>
    <defs></defs>
    <g id="Symbols" stroke="none" stroke-width="1" fill="none" fill-rule="evenodd">
        <g id="/////-Blog" transform="translate(-422.000000, 1.000000)" stroke-width="2" stroke="#6506C0">
            <g id="cuchitis">
                <path d="M502.742666,17.3057713 C499.58184,15.9300129 497.648904,13.0300411 496.009077,10.5709013 C493.867909,7.35928744 492.532508,5.54156384 489.992983,5.54156384 C487.45459,5.54156384 486.11919,7.35928744 483.978021,10.5709013 C481.739528,13.9287037 478.952161,18.1081081 473.237099,18.1081081 C467.524299,18.1081081 464.739197,13.9287037 462.501834,10.5709013 C460.36293,7.35928744 459.028661,5.54156384 456.493663,5.54156384 C453.956401,5.54156384 452.621,7.35928744 450.480964,10.5709013 C448.243602,13.9287037 445.457367,18.1081081 439.743436,18.1081081 C434.030637,18.1081081 431.245534,13.9287037 429.009304,10.5709013 C427.401164,8.15822456 426.249098,6.53315247 424.700938,5.87247113 C423.6677,5.43277241 423,4.4389173 423,3.33400426 C423,1.31342996 425.125324,-0.0169986621 427.007334,0.803470095 C430.165896,2.18036172 432.096569,5.07920023 433.734133,7.53720677 C435.874169,10.7499539 437.208438,12.5665443 439.743436,12.5665443 C442.280698,12.5665443 443.614967,10.7499539 445.756135,7.53720677 C447.993497,4.17940439 450.7786,0 456.493663,0 C462.206462,0 464.991565,4.17940439 467.228927,7.53720677 C469.367831,10.7499539 470.702101,12.5665443 473.237099,12.5665443 C475.776624,12.5665443 477.112024,10.7488207 479.254324,7.53720677 C481.492818,4.17827114 484.277921,0 489.992983,0 C495.709178,0 498.494281,4.17827114 500.732775,7.53720677 C502.342046,9.95101679 503.496375,11.5772221 505.04793,12.2367702 C506.081168,12.6753357 506.75,13.6703241 506.75,14.7752371 C506.75,16.7958114 504.625807,18.1251068 502.742666,17.3057713 Z"></path>
            </g>
        </g>
    </g>
</svg>