<?xml version="1.0" encoding="UTF-8"?>
<svg width="22px" height="22px" viewBox="0 0 22 22" version="1.1" xmlns="http://www.w3.org/2000/svg" xmlns:xlink="http://www.w3.org/1999/xlink">
    <!-- Generator: Sketch 51 (57462) - http://www.bohemiancoding.com/sketch -->
    <title>icon-linkedin</title>
    <desc>Created with Sketch.</desc>
    <defs></defs>
    <g id="icon-linkedin" stroke="none" stroke-width="1" fill="none" fill-rule="evenodd">
        <path d="M16.6524021,19 L16.6524021,12.8493138 C16.6524021,11.2393801 15.972331,10.140323 14.4768683,10.140323 C13.3330071,10.140323 12.6968861,10.8819905 12.4008007,11.5967697 C12.2897687,11.8533284 12.3071174,12.210718 12.3071174,12.5681076 L12.3071174,19 L8,19 C8,19 8.05551601,8.10465876 8,7.11427504 L12.3071174,7.11427504 L12.3071174,8.97964709 C12.5615658,8.16403697 13.9379004,7 16.1342527,7 C18.8591637,7 21,8.70964429 21,12.3910933 L21,19 L16.6524021,19 Z M3.96620278,6 C2.77335984,6 2,5.11871774 2,4.00162999 C2,2.86280902 2.79622266,2 4.01292247,2 C5.22862823,2 5.97614314,2.8606357 6,3.99837001 C6,5.11545776 5.22862823,6 3.99005964,6 L3.96620278,6 Z M6,7 L6,19 L2,19 L2,7 L6,7 Z" id="LinkedIn" fill="#FFFFFF"></path>
    </g>
</svg>