<?xml version="1.0" encoding="UTF-8"?>
<svg width="22px" height="22px" viewBox="0 0 22 22" version="1.1" xmlns="http://www.w3.org/2000/svg" xmlns:xlink="http://www.w3.org/1999/xlink">
    <!-- Generator: Sketch 51 (57462) - http://www.bohemiancoding.com/sketch -->
    <title>icon-medium</title>
    <desc>Created with Sketch.</desc>
    <defs></defs>
    <g id="icon-medium" stroke="none" stroke-width="1" fill="none" fill-rule="evenodd">
        <g id="Medium" transform="translate(0.000000, 2.000000)" fill="#FFFFFF">
            <path d="M20.9692493,3.32378232 C20.9652193,3.32050099 20.9619953,3.31619424 20.9569578,3.31373325 L20.9497038,3.31004175 L14.5883533,0.0728045118 C14.5454338,0.0508606167 14.5002978,0.0360946312 14.4545574,0.0241998096 C14.3971299,0.00922874094 14.3384934,0 14.2796555,0 C14.0360422,0 13.7936378,0.124485461 13.6622599,0.341463415 L10,6.3987988 L14.5960103,14 L20.9887948,3.42714422 C21.0099522,3.39186992 20.9998773,3.34839229 20.9692493,3.32378232" id="Fill-53"></path>
            <polyline id="Fill-54" points="8 5 8 11.923172 14 15 8 5"></polyline>
            <path d="M16,15.2865659 L20.8558645,17.8480024 C21.4877447,18.1814327 22,17.947969 22,17.3269264 L22,5 L16,15.2865659" id="Fill-55"></path>
            <path d="M6.96227605,3.23190543 L0.775347571,0.0837228298 C0.663580335,0.0269546672 0.557230902,0 0.460914433,0 C0.190024366,0 0,0.213391115 0,0.571357263 L0,14.165086 C0,14.528974 0.261659739,14.9598403 0.581510678,15.1225893 L6.03081554,17.8952444 C6.17047442,17.9663067 6.30351154,18 6.42370646,18 C6.76241938,18 7,17.7333122 7,17.2857013 L7,3.29377865 C7,3.26764079 6.98535187,3.24354495 6.96227605,3.23190543" id="Fill-56"></path>
        </g>
    </g>
</svg>