<?xml version="1.0" encoding="UTF-8"?>
<svg width="22px" height="22px" viewBox="0 0 22 22" version="1.1" xmlns="http://www.w3.org/2000/svg" xmlns:xlink="http://www.w3.org/1999/xlink">
    <!-- Generator: Sketch 51 (57462) - http://www.bohemiancoding.com/sketch -->
    <title>icon-behance</title>
    <desc>Created with Sketch.</desc>
    <defs></defs>
    <g id="icon-behance" stroke="none" stroke-width="1" fill="none" fill-rule="evenodd">
        <path d="M14.0578935,7.29443155 L19.8838736,7.29443155 L19.8838736,5.62529002 L14.0578935,5.62529002 L14.0578935,7.29443155 L14.0578935,7.29443155 Z M15.4380713,10.9364269 C15.0668332,11.3141531 14.8327074,11.8258701 14.7369875,12.4715777 L19.2681617,12.4715777 C19.2203017,11.7824826 18.9848825,11.2618329 18.5683714,10.9032483 C18.1466864,10.5472158 17.6279879,10.3698376 17.0071019,10.3698376 C16.3344754,10.3698376 15.8093094,10.5587007 15.4380713,10.9364269 L15.4380713,10.9364269 L15.4380713,10.9364269 Z M19.3703492,8.69559165 C20.0727264,9.00440835 20.6509265,9.49443155 21.1062429,10.163109 C21.5214604,10.7526682 21.787924,11.4366589 21.9095141,12.2138051 C21.9806573,12.6680974 22.0091146,13.3265661 21.997473,14.1828306 L14.6723119,14.1828306 C14.7162913,15.1769142 15.0629527,15.874942 15.725231,16.2743619 C16.1262199,16.5232019 16.6087001,16.6482599 17.1752585,16.6482599 C17.7715678,16.6482599 18.259222,16.4964037 18.6330471,16.1939675 C18.8387155,16.0293503 19.0198073,15.8022042 19.1750288,15.5112529 L21.8590672,15.5112529 C21.787924,16.0982599 21.4619588,16.6967517 20.8850523,17.3041763 C19.9847676,18.2676334 18.7235929,18.75 17.1028218,18.75 C15.7640364,18.75 14.5830595,18.3441995 13.5624782,17.5300464 C12.5367228,16.7171694 12.0270789,15.3925754 12.0270789,13.5600928 C12.0270789,11.8411833 12.4888629,10.5229698 13.4111372,9.60545244 C14.3359987,8.69048724 15.5324977,8.22981439 17.0058084,8.22981439 C17.8815163,8.22981439 18.6692654,8.38549884 19.3703492,8.69559165 L19.3703492,8.69559165 L19.3703492,8.69559165 Z M2.70990862,12.5073086 L2.70990862,16.0842227 L6.01095243,16.0842227 C6.60079411,16.0842227 7.06128455,16.0051044 7.3885432,15.8481439 C7.98485245,15.5546404 8.28236032,14.9982599 8.28236032,14.1738979 C8.28236032,13.474594 7.99520055,12.9960557 7.41700048,12.7344548 C7.09362236,12.5889791 6.63959949,12.512413 6.05751888,12.5073086 L2.70990862,12.5073086 L2.70990862,12.5073086 Z M2.70990862,7.32888631 L2.70990862,10.2881671 L6.01612648,10.2881671 C6.60467465,10.2881671 7.08456777,10.1771462 7.45451234,9.95510441 C7.82186988,9.73306265 8.00684216,9.3400232 8.00684216,8.77853828 C8.00684216,8.15197216 7.76366182,7.73979118 7.27730113,7.53816705 C6.85561607,7.39907193 6.32010191,7.32888631 5.66946514,7.32888631 L2.70990862,7.32888631 L2.70990862,7.32888631 Z M10.0932778,6.42923434 C10.5084953,6.99965197 10.7167508,7.68109049 10.7167508,8.47610209 C10.7167508,9.29408353 10.5084953,9.95382831 10.0881037,10.4515081 C9.85268445,10.7296984 9.50731662,10.9849188 9.05070672,11.2146172 C9.7440294,11.4647332 10.2666084,11.8590487 10.6223244,12.3988399 C10.9741598,12.937355 11.151371,13.5932715 11.151371,14.3640371 C11.151371,15.1590487 10.949583,15.8723898 10.5447136,16.5027842 C10.2885982,16.9200696 9.96780706,17.2722738 9.58234035,17.5581206 C9.14901367,17.8860789 8.63807625,18.1093968 8.04694105,18.2319026 C7.45580585,18.3531323 6.81681069,18.4118329 6.12607504,18.4118329 L0,18.4118329 L0,5 L6.56974981,5 C8.22803279,5.02424594 9.4012486,5.50023202 10.0932778,6.42923434 L10.0932778,6.42923434 L10.0932778,6.42923434 Z" id="Behance" fill="#FFFFFF"></path>
    </g>
</svg>