<?xml version="1.0" encoding="UTF-8"?>
<svg width="24px" height="24px" viewBox="0 0 24 24" version="1.1" xmlns="http://www.w3.org/2000/svg" xmlns:xlink="http://www.w3.org/1999/xlink">
    <!-- Generator: Sketch 51 (57462) - http://www.bohemiancoding.com/sketch -->
    <title>icon-linkedin</title>
    <desc>Created with Sketch.</desc>
    <defs></defs>
    <g id="icon-linkedin" stroke="none" stroke-width="1" fill="none" fill-rule="evenodd">
        <path d="M22.9,21 L18.2808149,21 L18.2808149,14.3207402 C18.2808149,12.5724531 17.5582608,11.378946 15.9693791,11.378946 C14.7540628,11.378946 14.0782044,12.1843504 13.763623,12.9605558 C13.645655,13.2391625 13.6640875,13.6272652 13.6640875,14.0153679 L13.6640875,21 L9.08791157,21 C9.08791157,21 9.14689558,9.16834219 9.08791157,8.09284754 L13.6640875,8.09284754 L13.6640875,10.1185247 C13.9344309,9.23282321 15.3967427,7.968752 17.7302975,7.968752 C20.6254292,7.968752 22.9,9.82531856 22.9,13.8231414 L22.9,21 L22.9,21 Z M4.46012465,6.47838894 L4.43063264,6.47838894 C2.95603246,6.47838894 2,5.49170775 2,4.2410194 C2,2.96599859 2.98429563,2 4.48838782,2 C5.99125118,2 6.91533396,2.96356535 6.94482596,4.23736953 C6.94482596,5.48805789 5.99125118,6.47838894 4.46012465,6.47838894 L4.46012465,6.47838894 L4.46012465,6.47838894 Z M2.52716957,8.09284754 L6.60075259,8.09284754 L6.60075259,21 L2.52716957,21 L2.52716957,8.09284754 L2.52716957,8.09284754 Z" id="LinkedIn" fill="#6506C0"></path>
    </g>
</svg>