<?xml version="1.0" encoding="UTF-8"?>
<svg width="125px" height="81px" viewBox="0 0 125 81" version="1.1" xmlns="http://www.w3.org/2000/svg" xmlns:xlink="http://www.w3.org/1999/xlink">
    <!-- Generator: Sketch 51 (57462) - http://www.bohemiancoding.com/sketch -->
    <title>icon-smile</title>
    <desc>Created with Sketch.</desc>
    <defs></defs>
    <g id="icon-smile" stroke="none" stroke-width="1" fill="none" fill-rule="evenodd">
        <path d="M124.692876,17.827228 C121.229742,7.48198896 111.171564,0 99.3026928,0 C87.4338219,0 77.3793242,7.48198896 73.9125099,17.827228 C72.6023337,21.739355 75.6495973,25.7618902 79.91135,25.7618902 L80.7210094,25.7618902 C83.5032935,25.7618902 85.8034623,23.947517 86.7419312,21.4154913 C88.5857464,16.4397662 93.513628,12.8809451 99.3026928,12.8809451 C105.091757,12.8809451 110.019639,16.4397662 111.867135,21.4154913 C112.805603,23.947517 115.102092,25.7618902 117.884376,25.7618902 L118.697716,25.7618902 C122.955788,25.7618902 126.003052,21.739355 124.692876,17.827228 M81.8950155,55.2040503 L81.0816759,55.2040503 C78.2993917,55.2040503 76.0029032,57.0184235 75.0644344,59.546769 C73.2169388,64.522494 68.2890573,68.0849954 62.4999925,68.0849954 C56.7109278,68.0849954 51.7830462,64.522494 49.9392309,59.546769 C49.0007621,57.0184235 46.7005933,55.2040503 43.9183092,55.2040503 L43.1086498,55.2040503 C38.8468971,55.2040503 35.7996335,59.2229052 37.1098096,63.1387125 C40.576624,73.4839515 50.6311217,80.9659405 62.4999925,80.9659405 C74.3688634,80.9659405 84.4270413,73.4839515 87.8901754,63.1387125 C89.2003515,59.2229052 86.153088,55.2040503 81.8950155,55.2040503 M44.2789757,25.7618902 L45.0923153,25.7618902 C49.3503877,25.7618902 52.3976513,21.739355 51.0874752,17.827228 C47.6243411,7.48198896 37.5661631,0 25.6972923,0 C13.8321018,0 3.77392379,7.48198896 0.307109426,17.827228 C-1.0030667,21.739355 2.04419688,25.7618902 6.30594956,25.7618902 L7.11560897,25.7618902 C9.8978931,25.7618902 12.1980619,23.947517 13.1365307,21.4154913 C14.980346,16.4397662 19.9082276,12.8809451 25.6972923,12.8809451 C31.4863571,12.8809451 36.4142386,16.4397662 38.2617342,21.4154913 C39.200203,23.947517 41.4966915,25.7618902 44.2789757,25.7618902" id="icon_happy" fill="#6FEC85"></path>
    </g>
</svg>