<?xml version="1.0" encoding="UTF-8"?>
<svg width="61px" height="14px" viewBox="0 0 61 14" version="1.1" xmlns="http://www.w3.org/2000/svg" xmlns:xlink="http://www.w3.org/1999/xlink">
    <!-- Generator: Sketch 43.1 (39012) - http://www.bohemiancoding.com/sketch -->
    <title>cuchitis</title>
    <desc>Created with Sketch.</desc>
    <defs></defs>
    <g id="Symbols" stroke="none" stroke-width="1" fill="none" fill-rule="evenodd">
        <g id="/////-Portfolio" transform="translate(-7.000000, 0.000000)" fill="#6506C0">
            <g id="/////-Examples">
                <path d="M64.7241686,12.527312 C62.4361082,11.5314272 61.0368933,9.43219394 59.8498544,7.65207037 C58.2999044,5.32724539 57.3332337,4.01143054 55.4949209,4.01143054 C53.6574273,4.01143054 52.6907566,5.32724539 51.1408066,7.65207037 C49.5204043,10.0827184 47.502684,13.1081081 43.365661,13.1081081 C39.2302764,13.1081081 37.2141945,10.0827184 35.5946114,7.65207037 C34.0462999,5.32724539 33.0804484,4.01143054 31.2454124,4.01143054 C29.408738,4.01143054 28.4420673,5.32724539 26.8929365,7.65207037 C25.2733535,10.0827184 23.2564524,13.1081081 19.1202486,13.1081081 C14.984864,13.1081081 12.9687821,10.0827184 11.3500182,7.65207037 C10.1859173,5.90558047 9.35195902,4.72922231 8.23127635,4.25096791 C7.48333536,3.93267853 7,3.2132461 7,2.41342099 C7,0.950766462 8.53848103,-0.0123050017 9.90083137,0.581616412 C12.1872534,1.57832155 13.5848299,3.6767345 14.7702303,5.45603774 C16.3193611,7.78168305 17.2852126,9.09667756 19.1202486,9.09667756 C20.9569229,9.09667756 21.9227744,7.78168305 23.4727244,5.45603774 C25.0923075,3.02538974 27.1083894,0 31.2454124,0 C35.380797,0 37.3968789,3.02538974 39.0164619,5.45603774 C40.5647735,7.78168305 41.530625,9.09667756 43.365661,9.09667756 C45.2039738,9.09667756 46.1706445,7.78086272 47.7214137,5.45603774 C49.341816,3.02456941 51.3578979,0 55.4949209,0 C59.6327631,0 61.648845,3.02456941 63.2692473,5.45603774 C64.4341674,7.20334798 65.2697641,8.38052647 66.3929044,8.85796053 C67.1408454,9.17542958 67.625,9.89568234 67.625,10.6955074 C67.625,12.158162 66.0873382,13.1204131 64.7241686,12.527312 Z" id="cuchitis"></path>
            </g>
        </g>
    </g>
</svg>