<?xml version="1.0" encoding="UTF-8"?>
<svg width="294px" height="334px" viewBox="0 0 294 334" version="1.1" xmlns="http://www.w3.org/2000/svg" xmlns:xlink="http://www.w3.org/1999/xlink">
    <!-- Generator: Sketch 51 (57462) - http://www.bohemiancoding.com/sketch -->
    <title>sangha-workbook</title>
    <desc>Created with Sketch.</desc>
    <defs></defs>
    <g id="sangha-workbook" stroke="none" stroke-width="1" fill="none" fill-rule="evenodd">
        <g id="Group">
            <path d="M85.5,0.5 C84.3954305,0.5 83.5,1.3954305 83.5,2.5 L83.5,331.5 C83.5,332.604569 84.3954305,333.5 85.5,333.5 L291.5,333.5 C292.604569,333.5 293.5,332.604569 293.5,331.5 L293.5,2.5 C293.5,1.3954305 292.604569,0.5 291.5,0.5 L85.5,0.5 Z" id="rectangle_externo" stroke="#6506C0"></path>
            <rect id="rectangle_interno" stroke="#6506C0" x="95.5" y="12.5" width="185" height="287" rx="2.5"></rect>
            <ellipse id="Oval" fill="#EFE6F8" cx="253" cy="214.5" rx="19" ry="19.5"></ellipse>
            <rect id="Rectangle-2" fill="#EFE6F8" x="105" y="68" width="167" height="16" rx="6"></rect>
            <rect id="Rectangle-2-Copy-2" fill="#EFE6F8" x="105" y="109" width="167" height="16" rx="6"></rect>
            <rect id="Rectangle-2-Copy-8" fill="#EFE6F8" x="164" y="129" width="109" height="16" rx="6"></rect>
            <rect id="Rectangle-2-Copy-4" fill="#EFE6F8" x="105" y="149" width="167" height="16" rx="6"></rect>
            <rect id="Rectangle-2-Copy" fill="#EFE6F8" x="105" y="88" width="167" height="16" rx="6"></rect>
            <rect id="Rectangle-2-Copy-3" fill="#EFE6F8" x="105" y="129" width="15" height="16" rx="6"></rect>
            <rect id="Rectangle-2-Copy-6" fill="#EFE6F8" x="124" y="129" width="15" height="16" rx="6"></rect>
            <rect id="Rectangle-2-Copy-7" fill="#EFE6F8" x="144" y="129" width="15" height="16" rx="6"></rect>
            <rect id="Rectangle-2-Copy-5" fill="#EFE6F8" x="105" y="170" width="167" height="16" rx="6"></rect>
            <rect id="Rectangle-4" fill="#6506C0" x="96" y="13" width="184" height="45"></rect>
            <rect id="Rectangle-5" fill="#6506C0" transform="translate(49.500000, 300.000000) rotate(-180.000000) translate(-49.500000, -300.000000) " x="33" y="299" width="33" height="2" rx="1"></rect>
            <path d="M17,269 L48,269 C48.5522847,269 49,269.447715 49,270 L49,270 C49,270.552285 48.5522847,271 48,271 L17,271 C16.4477153,271 16,270.552285 16,270 L16,270 C16,269.447715 16.4477153,269 17,269 Z" id="Rectangle-5-Copy" fill="#6506C0" transform="translate(32.500000, 270.000000) rotate(-180.000000) translate(-32.500000, -270.000000) "></path>
            <rect id="Rectangle-5-Copy-2" fill="#6506C0" transform="translate(16.500000, 241.000000) rotate(-180.000000) translate(-16.500000, -241.000000) " x="0" y="240" width="33" height="2" rx="1"></rect>
        </g>
    </g>
</svg>