<?xml version="1.0" encoding="UTF-8"?>
<svg width="158px" height="50px" viewBox="0 0 158 50" version="1.1" xmlns="http://www.w3.org/2000/svg" xmlns:xlink="http://www.w3.org/1999/xlink">
    <!-- Generator: Sketch 51 (57462) - http://www.bohemiancoding.com/sketch -->
    <title>sangha-logo-white</title>
    <desc>Created with Sketch.</desc>
    <defs></defs>
    <g id="sangha-logo-white" stroke="none" stroke-width="1" fill="none" fill-rule="evenodd">
        <g id="SANGHA-logo" fill="#FFFFFF">
            <path d="M22.618648,39.6534444 C22.618648,43.0531111 19.2384847,46.711 11.8167371,46.711 C7.26995495,46.711 4.26208366,45.6936667 2.87628663,43.6854444 C1.79904901,42.1244444 1.63427673,39.8657778 2.38274703,36.8114444 C2.61902426,38.1608889 3.12344505,39.2451111 3.90533614,40.1006667 C5.16444505,41.475 7.10518267,42.1711111 9.67081139,42.1711111 C14.6746035,42.1711111 19.2750144,40.6746667 22.3870342,38.052 C22.5409252,38.5871111 22.618648,39.1237778 22.618648,39.6534444 M22.8961183,34.7316667 C21.2476183,32.2863333 18.5786183,30.184 16.2096282,28.3188889 C13.3408807,26.0586667 10.6322421,23.9244444 10.6322421,21.9854444 C10.6322421,20.0985556 11.9442025,19.299 14.9116579,17.6703333 C16.5516084,16.7696667 18.4115144,15.75 20.413653,14.1944444 C22.2681183,12.7532222 23.7223114,10.9713333 24.5096431,9.17777778 C25.007846,8.04066667 25.3257322,6.92611111 25.5270342,6.02466667 C26.5203312,10.2355556 26.239752,13.5434444 24.6884054,15.8713333 C23.2209995,18.0755556 20.8970886,19.0594444 19.2004005,19.7781111 C17.7827371,20.3785556 16.6635292,20.853 16.6635292,21.9784444 C16.6635292,23.2664444 17.9902569,24.0162222 19.5291678,24.885 C21.6478906,26.0835556 24.2850243,27.5737778 24.2850243,30.5277778 C24.2850243,32.0141111 23.8179104,33.4265556 22.8961183,34.7316667 M20.4711678,23.2151111 L20.3126134,23.4896667 L20.3126134,23.4896667 L20.3126134,23.4896667 L20.4688361,23.2135556 L20.4665045,23.2127778 C20.021153,22.9607778 19.0783757,22.428 18.7138559,22.106 C19.0332965,21.9317778 19.6030045,21.6906667 19.9480936,21.5436667 C23.4969153,20.041 30.8798015,16.9127778 26.8700837,3.65088889 C26.7325144,3.19666667 26.4371678,2.45466667 26.3493411,2.23611111 C25.932747,1.20477778 25.7602025,0.777777778 25.0777965,0.777777778 C24.1583361,0.777777778 24.110148,1.53455556 24.0534104,2.42277778 C24.024653,2.86844444 23.9850144,3.47588889 23.925945,4.02344444 C23.8684302,4.55622222 23.6142767,6.447 22.7546629,8.407 C22.0940193,9.91355556 20.8450144,11.431 19.2384847,12.6793333 C17.3583708,14.1407778 15.5691926,15.1223333 13.9898658,15.9887778 C11.1599797,17.542 8.71559851,18.8836667 8.71559851,21.9854444 C8.71559851,24.8562222 11.7802074,27.2696667 15.0251332,29.8254444 C17.4275441,31.7185556 20.1416233,33.8558889 21.574054,36.2335556 C18.8646381,38.7551111 14.4383262,40.2538889 9.67081139,40.2538889 C7.66400941,40.2538889 6.19971238,39.7662222 5.31911337,38.8048889 C3.86725198,37.2197778 4.1004203,34.5628889 4.25431139,32.8043333 C4.28928663,32.41 4.31882129,32.0685556 4.32659356,31.7831111 C4.33669752,31.367 4.29395,31.1243333 4.26752426,31.0045556 C4.26363812,30.5371111 3.92787574,30.1412222 3.46931139,30.0634444 C2.64545,29.9265556 2.40917277,30.6592222 2.29258861,31.0138889 C2.24206881,31.1694444 2.18144505,31.3545556 2.13636584,31.4735556 L2.05475693,31.6905556 C0.758341089,35.1151111 -1.41167871,40.8457778 1.30006881,44.7751111 C3.06437574,47.3332222 6.60231634,48.629 11.8167371,48.629 C19.3053262,48.629 24.5352916,44.9384444 24.5352916,39.6534444 C24.5352916,38.6143333 24.318445,37.5721111 23.891747,36.5532222 C25.403455,34.7565556 26.2016678,32.6783333 26.2016678,30.5277778 C26.2016678,26.4545556 22.7531084,24.5054444 20.4711678,23.2151111" id="Fill-1"></path>
            <path d="M42.3772535,35.0626889 L43.0767584,33.3593556 C44.304001,34.2926889 45.7115604,34.7593556 47.297105,34.7593556 C48.1054218,34.7593556 48.7194317,34.6232444 49.1391347,34.3510222 C49.5588376,34.0788 49.7686891,33.6938 49.7686891,33.1960222 C49.7686891,32.7760222 49.624902,32.4454667 49.3373277,32.2043556 C49.0497535,31.9632444 48.5639861,31.7571333 47.8800257,31.5860222 L45.9221891,31.1193556 C44.8954713,30.9015778 44.1143574,30.5165778 43.5780703,29.9643556 C43.0417832,29.4121333 42.7736396,28.7238 42.7736396,27.8993556 C42.7736396,26.8415778 43.1972287,25.9860222 44.0451842,25.3326889 C44.8915851,24.6793556 46.0154564,24.3526889 47.4136891,24.3526889 C48.2538723,24.3526889 49.0497535,24.4849111 49.8044416,24.7493556 C50.5575752,25.0138 51.1987881,25.3871333 51.727303,25.8693556 L51.0052584,27.5260222 C49.8697287,26.6238 48.6735752,26.1726889 47.4136891,26.1726889 C46.6520059,26.1726889 46.0613129,26.3165778 45.6416099,26.6043556 C45.2219069,26.8921333 45.0128327,27.2926889 45.0128327,27.8060222 C45.0128327,28.2104667 45.1441842,28.5371333 45.4084416,28.7860222 C45.672699,29.0349111 46.092402,29.2293556 46.6683277,29.3693556 L48.6735752,29.8593556 C49.7920059,30.1082444 50.6197535,30.5010222 51.1560406,31.0376889 C51.6923277,31.5743556 51.9604713,32.2704667 51.9604713,33.1260222 C51.9604713,34.1838 51.5368822,35.0199111 50.689704,35.6343556 C49.8417485,36.2488 48.6883426,36.5560222 47.2271545,36.5560222 C45.1760505,36.5560222 43.5586396,36.0582444 42.3772535,35.0626889" id="Fill-4"></path>
            <path d="M69.2728302,33.5807889 C69.855751,32.8426778 70.1472114,31.8035667 70.1472114,30.4657889 C70.1472114,29.1124556 69.855751,28.0710111 69.2728302,27.3391222 C68.6899094,26.6080111 67.8629391,26.2424556 66.7903649,26.2424556 C65.7325579,26.2424556 64.9048104,26.6196778 64.306345,27.3741222 C63.7078797,28.1293444 63.408647,29.1746778 63.408647,30.5124556 C63.408647,31.8346778 63.7078797,32.8613444 64.306345,33.5924556 C64.9048104,34.3243444 65.7403302,34.6891222 66.8129045,34.6891222 C67.8699342,34.6891222 68.6899094,34.3196778 69.2728302,33.5807889 L69.2728302,33.5807889 Z M72.4788946,24.6324556 L72.4788946,36.3924556 L70.1472114,36.3924556 L70.1472114,34.3857889 C69.8052312,35.0857889 69.296147,35.6224556 68.6199589,35.9957889 C67.9437708,36.3691222 67.1541074,36.5557889 66.2533005,36.5557889 C65.2118153,36.5557889 64.2985728,36.3069 63.5135728,35.8091222 C62.7285728,35.3121222 62.118449,34.6074556 61.6832015,33.6974556 C61.247954,32.7874556 61.0311074,31.7257889 61.0311074,30.5124556 C61.0311074,29.2991222 61.2526173,28.2257889 61.6948599,27.2924556 C62.1378797,26.3591222 62.7557757,25.6357889 63.548548,25.1224556 C64.3413203,24.6091222 65.2421272,24.3524556 66.2533005,24.3524556 C67.1541074,24.3524556 67.9398847,24.5430111 68.6090777,24.9241222 C69.2767163,25.3052333 69.7896866,25.8457889 70.1472114,26.5457889 L70.1472114,24.6324556 L72.4788946,24.6324556 Z" id="Fill-6"></path>
            <path d="M93.3941703,29.0661 L93.3941703,36.3927667 L91.0391703,36.3927667 L91.0391703,29.2061 C91.0391703,28.1794333 90.8409772,27.4327667 90.4438139,26.9661 C90.0474277,26.4994333 89.4147644,26.2661 88.5442693,26.2661 C87.5486406,26.2661 86.7519822,26.5772111 86.1542941,27.1994333 C85.5550515,27.8216556 85.2558188,28.6538778 85.2558188,29.6961 L85.2558188,36.3927667 L82.9241356,36.3927667 L82.9241356,27.9461 C82.9241356,26.7172111 82.8619574,25.6127667 82.7383782,24.6327667 L84.9293832,24.6327667 L85.1400119,26.6627667 C85.512304,25.9161 86.0532545,25.3444333 86.7605317,24.9477667 C87.4670317,24.5511 88.2714624,24.3527667 89.1730465,24.3527667 C91.9866109,24.3527667 93.3941703,25.9238778 93.3941703,29.0661" id="Fill-8"></path>
            <path d="M111.34782,33.1026889 C111.954057,32.4026889 112.257176,31.4382444 112.257176,30.2093556 C112.257176,28.9804667 111.957944,28.0121333 111.359478,27.3043556 C110.761013,26.5965778 109.925493,26.2426889 108.852919,26.2426889 C107.795889,26.2426889 106.959592,26.5965778 106.346359,27.3043556 C105.731572,28.0121333 105.425345,28.9804667 105.425345,30.2093556 C105.425345,31.4226889 105.731572,32.3832444 106.346359,33.0910222 C106.959592,33.7995778 107.795889,34.1526889 108.852919,34.1526889 C109.909171,34.1526889 110.741582,33.8026889 111.34782,33.1026889 L111.34782,33.1026889 Z M114.588859,24.6326889 L114.588859,36.1826889 C114.588859,37.9715778 114.117859,39.3210222 113.178191,40.2310222 C112.237746,41.1410222 110.842622,41.5960222 108.99282,41.5960222 C107.205196,41.5960222 105.642968,41.2071333 104.306137,40.4293556 L104.702523,38.5860222 C105.433117,38.9749111 106.136508,39.2626889 106.812696,39.4493556 C107.488884,39.6360222 108.20782,39.7293556 108.969503,39.7293556 C111.161285,39.7293556 112.257176,38.6093556 112.257176,36.3693556 L112.257176,33.8260222 C111.899651,34.5104667 111.378909,35.0510222 110.694949,35.4476889 C110.010211,35.8443556 109.218216,36.0426889 108.316632,36.0426889 C107.290691,36.0426889 106.376671,35.8015778 105.576904,35.3193556 C104.776359,34.8371333 104.154577,34.1526889 103.711557,33.2660222 C103.268538,32.3793556 103.047028,31.3604667 103.047028,30.2093556 C103.047028,29.0582444 103.268538,28.0393556 103.711557,27.1526889 C104.154577,26.2660222 104.776359,25.5776889 105.576904,25.0876889 C106.376671,24.5976889 107.290691,24.3526889 108.316632,24.3526889 C109.218216,24.3526889 110.010211,24.5432444 110.694949,24.9243556 C111.378909,25.3054667 111.899651,25.8460222 112.257176,26.5460222 L112.257176,24.6326889 L114.588859,24.6326889 Z" id="Fill-10"></path>
            <path d="M135.504135,29.0661 L135.504135,36.3927667 L133.149135,36.3927667 L133.149135,29.2061 C133.149135,28.1794333 132.950942,27.4327667 132.553779,26.9661 C132.157393,26.4994333 131.524729,26.2661 130.654234,26.2661 C129.658605,26.2661 128.861947,26.5772111 128.264259,27.1994333 C127.665016,27.8216556 127.365784,28.6538778 127.365784,29.6961 L127.365784,36.3927667 L125.0341,36.3927667 L125.0341,19.2194333 L127.365784,19.2194333 L127.365784,26.4527667 C127.754398,25.7683222 128.291462,25.2472111 128.975422,24.8894333 C129.658605,24.5316556 130.428838,24.3527667 131.283011,24.3527667 C134.096576,24.3527667 135.504135,25.9238778 135.504135,29.0661" id="Fill-12"></path>
            <path d="M153.399337,33.5807889 C153.982258,32.8426778 154.273718,31.8035667 154.273718,30.4657889 C154.273718,29.1124556 153.982258,28.0710111 153.399337,27.3391222 C152.816416,26.6080111 151.989446,26.2424556 150.916872,26.2424556 C149.859065,26.2424556 149.031317,26.6196778 148.432852,27.3741222 C147.834387,28.1293444 147.535154,29.1746778 147.535154,30.5124556 C147.535154,31.8346778 147.834387,32.8613444 148.432852,33.5924556 C149.031317,34.3243444 149.866837,34.6891222 150.939411,34.6891222 C151.996441,34.6891222 152.816416,34.3196778 153.399337,33.5807889 L153.399337,33.5807889 Z M156.605401,24.6324556 L156.605401,36.3924556 L154.273718,36.3924556 L154.273718,34.3857889 C153.931738,35.0857889 153.422654,35.6224556 152.746466,35.9957889 C152.070278,36.3691222 151.280614,36.5557889 150.379807,36.5557889 C149.338322,36.5557889 148.42508,36.3069 147.64008,35.8091222 C146.85508,35.3121222 146.244956,34.6074556 145.809708,33.6974556 C145.374461,32.7874556 145.157614,31.7257889 145.157614,30.5124556 C145.157614,29.2991222 145.379124,28.2257889 145.821367,27.2924556 C146.264387,26.3591222 146.882283,25.6357889 147.675055,25.1224556 C148.467827,24.6091222 149.368634,24.3524556 150.379807,24.3524556 C151.280614,24.3524556 152.066392,24.5430111 152.735585,24.9241222 C153.403223,25.3052333 153.916194,25.8457889 154.273718,26.5457889 L154.273718,24.6324556 L156.605401,24.6324556 Z" id="Fill-14"></path>
        </g>
    </g>
</svg>