<?xml version="1.0" encoding="UTF-8"?>
<svg width="28px" height="48px" viewBox="0 0 28 48" version="1.1" xmlns="http://www.w3.org/2000/svg" xmlns:xlink="http://www.w3.org/1999/xlink">
    <!-- Generator: Sketch 51 (57462) - http://www.bohemiancoding.com/sketch -->
    <title>sangha-symbol</title>
    <desc>Created with Sketch.</desc>
    <defs></defs>
    <g id="sangha-symbol" stroke="none" stroke-width="1" fill="none" fill-rule="evenodd">
        <path d="M22.5936629,38.9965379 C22.5936629,42.4067747 19.2172301,46.0760366 11.8036736,46.0760366 C7.26190959,46.0760366 4.25735798,45.0555402 2.8730904,43.0410741 C1.79704168,41.4752206 1.63245126,39.2095314 2.3800955,36.1457016 C2.61611196,37.4993417 3.11997604,38.586935 3.90100418,39.4451506 C5.15872346,40.823757 7.09731916,41.5220324 9.66011628,41.5220324 C14.6583859,41.5220324 19.2537194,40.0209353 22.3623046,37.3901143 C22.5160259,37.9268891 22.5936629,38.4652244 22.5936629,38.9965379 M22.8708269,34.0594574 C21.2241463,31.6065211 18.558092,29.4976513 16.1917165,27.6267412 C13.3261351,25.3594916 10.6204859,23.2186337 10.6204859,21.273605 C10.6204859,19.3808494 11.9309983,18.5788079 14.8951787,16.9450775 C16.5333192,16.0416105 18.3911725,15.0187735 20.3911014,13.4583814 C22.24352,12.0126782 23.6961082,10.2252491 24.4825709,8.42611706 C24.980224,7.28547047 25.2977593,6.16744957 25.4988391,5.26320238 C26.4910399,9.48718365 26.2107703,12.8053573 24.661136,15.140484 C23.1953496,17.3515596 20.8740035,18.3385076 19.1791879,19.0594087 C17.7630892,19.66172 16.6451165,20.1376396 16.6451165,21.2665832 C16.6451165,22.5585878 17.97038,23.3106968 19.5075924,24.1821758 C21.6239768,25.3844578 24.2582,26.8793134 24.2582,29.8424979 C24.2582,31.3334525 23.7916017,32.7502885 22.8708269,34.0594574 M20.4485528,22.5070949 L20.2901733,22.7825041 L20.2901733,22.7825041 L20.2901733,22.7825041 L20.4462237,22.5055345 L20.4438945,22.5047543 C19.9990346,22.2519708 19.0572979,21.7175365 18.6931804,21.3945354 C19.0122684,21.2197715 19.5813476,20.9779107 19.9260558,20.8304537 C23.4709609,19.3231149 30.8456988,16.1851665 26.8404064,2.88204411 C26.7029889,2.42640964 26.4079683,1.68210263 26.3202385,1.46286755 C25.9041042,0.428327617 25.7317501,0 25.0500973,0 C24.1316517,0 24.0835167,0.759130732 24.0268417,1.65011459 C23.9981161,2.09716691 23.9585212,2.70650001 23.8995171,3.25575801 C23.8420657,3.79019229 23.5881927,5.68684882 22.7295276,7.6529428 C22.0696132,9.1641825 20.8219867,10.6863449 19.2172301,11.9385596 C17.3391912,13.4045479 15.5519876,14.3891553 13.974404,15.2582936 C11.1476411,16.8163451 8.70595765,18.1621832 8.70595765,21.273605 C8.70595765,24.1533085 11.7671843,26.5742568 15.0085287,29.1379809 C17.4082881,31.036978 20.1193719,33.1809567 21.5502217,35.566016 C18.8437961,38.0954115 14.4223694,39.5988492 9.66011628,39.5988492 C7.65552914,39.5988492 6.1928482,39.1096663 5.31322107,38.145344 C3.86296205,36.5553045 4.09587303,33.8901549 4.24959428,32.1261317 C4.28453092,31.7305723 4.31403298,31.3880663 4.32179668,31.1017343 C4.33188949,30.6843294 4.28918914,30.4409083 4.26279257,30.3207581 C4.25891072,29.8518603 3.92351891,29.4547405 3.46546065,29.3767209 C2.64250853,29.2394064 2.40649208,29.9743511 2.29003659,30.3301204 C2.23957254,30.4861596 2.17901569,30.6718463 2.13398623,30.7912163 L2.05246739,31.008891 C0.757482355,34.4440941 -1.41014248,40.1925784 1.29861219,44.1341287 C3.06097192,46.7001934 6.59500782,48 11.8036736,48 C19.2839979,48 24.5081911,44.2979699 24.5081911,38.9965379 C24.5081911,37.954196 24.2915839,36.9087333 23.8653568,35.8866765 C25.3753963,34.0844237 26.1727282,31.9997399 26.1727282,29.8424979 C26.1727282,25.7566113 22.7279749,23.8014401 20.4485528,22.5070949" id="Fill-1" fill="#1D1D1B"></path>
    </g>
</svg>