<?xml version="1.0" encoding="UTF-8"?>
<svg width="147px" height="121px" viewBox="0 0 147 121" version="1.1" xmlns="http://www.w3.org/2000/svg" xmlns:xlink="http://www.w3.org/1999/xlink">
    <!-- Generator: Sketch 51 (57462) - http://www.bohemiancoding.com/sketch -->
    <title>shape-dots</title>
    <desc>Created with Sketch.</desc>
    <defs></defs>
    <g id="shape-dots" stroke="none" stroke-width="1" fill="none" fill-rule="evenodd">
        <g id="Group-3-Copy" fill="#6FEC85">
            <circle id="Oval-5" cx="60.5" cy="7.5" r="7.5"></circle>
            <circle id="Oval-5-Copy-8" cx="60.5" cy="60.5" r="7.5"></circle>
            <circle id="Oval-5-Copy-4" cx="33.5" cy="33.5" r="7.5"></circle>
            <circle id="Oval-5-Copy-9" cx="33.5" cy="86.5" r="7.5"></circle>
            <circle id="Oval-5-Copy-16" cx="7.5" cy="113.5" r="7.5"></circle>
            <circle id="Oval-5-Copy" cx="86.5" cy="7.5" r="7.5"></circle>
            <circle id="Oval-5-Copy-10" cx="86.5" cy="60.5" r="7.5"></circle>
            <circle id="Oval-5-Copy-5" cx="60.5" cy="33.5" r="7.5"></circle>
            <circle id="Oval-5-Copy-11" cx="60.5" cy="86.5" r="7.5"></circle>
            <circle id="Oval-5-Copy-17" cx="33.5" cy="113.5" r="7.5"></circle>
            <circle id="Oval-5-Copy-2" cx="113.5" cy="7.5" r="7.5"></circle>
            <circle id="Oval-5-Copy-12" cx="113.5" cy="60.5" r="7.5"></circle>
            <circle id="Oval-5-Copy-6" cx="86.5" cy="33.5" r="7.5"></circle>
            <circle id="Oval-5-Copy-13" cx="86.5" cy="86.5" r="7.5"></circle>
            <circle id="Oval-5-Copy-18" cx="60.5" cy="113.5" r="7.5"></circle>
            <circle id="Oval-5-Copy-3" cx="139.5" cy="7.5" r="7.5"></circle>
            <circle id="Oval-5-Copy-14" cx="139.5" cy="60.5" r="7.5"></circle>
            <circle id="Oval-5-Copy-7" cx="113.5" cy="33.5" r="7.5"></circle>
            <circle id="Oval-5-Copy-15" cx="113.5" cy="86.5" r="7.5"></circle>
            <circle id="Oval-5-Copy-19" cx="86.5" cy="113.5" r="7.5"></circle>
        </g>
    </g>
</svg>