<?xml version="1.0" encoding="UTF-8"?>
<svg width="142px" height="31px" viewBox="0 0 142 31" version="1.1" xmlns="http://www.w3.org/2000/svg" xmlns:xlink="http://www.w3.org/1999/xlink">
    <!-- Generator: Sketch 51 (57462) - http://www.bohemiancoding.com/sketch -->
    <title>Artboard</title>
    <desc>Created with Sketch.</desc>
    <defs></defs>
    <g id="Artboard" stroke="none" stroke-width="1" fill="none" fill-rule="evenodd">
        <path d="M135.205475,29.6264472 C129.846225,27.271231 126.568888,22.3066525 123.788525,18.096752 C120.158127,12.5986607 117.893925,9.48682646 113.588103,9.48682646 C109.284201,9.48682646 107.019999,12.5986607 103.389601,18.096752 C99.5941841,23.8451092 94.8681423,31 85.1781255,31 C75.4919464,31 70.7697422,23.8451092 66.9762445,18.096752 C63.3496838,12.5986607 61.0874007,9.48682646 56.7892546,9.48682646 C52.487271,9.48682646 50.223069,12.5986607 46.5945895,18.096752 C42.8010918,23.8451092 38.0769688,31 28.3888709,31 C18.7026917,31 13.9804875,23.8451092 10.1889087,18.096752 C7.46227231,13.9663934 5.50891844,11.184367 2.88397924,10.05332 C1.13210097,9.30058201 0,7.5991614 0,5.70761625 C0,2.24851367 3.60353494,-0.0291006947 6.79452462,1.37549283 C12.1499378,3.7326491 15.4234366,8.69528756 18.1999622,12.903248 C21.8284417,18.4032793 24.0907248,21.5131735 28.3888709,21.5131735 C32.6908545,21.5131735 34.9531377,18.4032793 38.583536,12.903248 C42.3770337,7.15489079 47.0992379,0 56.7892546,0 C66.4754338,0 71.197638,7.15489079 74.9911356,12.903248 C78.6176963,18.4032793 80.8799795,21.5131735 85.1781255,21.5131735 C89.4839468,21.5131735 91.7481487,18.4013393 95.3804659,12.903248 C99.1758824,7.15295075 103.898087,0 113.588103,0 C123.280039,0 128.002243,7.15295075 131.79766,12.903248 C134.526215,17.0355467 136.483406,19.8195131 139.114102,20.9486201 C140.86598,21.699418 142,23.4027786 142,25.2943238 C142,28.7534264 138.398384,31.0291007 135.205475,29.6264472 Z" id="cuchitis" fill="#6FEC85"></path>
    </g>
</svg>