<?xml version="1.0" encoding="UTF-8"?>
<svg width="220px" height="166px" viewBox="0 0 220 166" version="1.1" xmlns="http://www.w3.org/2000/svg" xmlns:xlink="http://www.w3.org/1999/xlink">
    <!-- Generator: Sketch 42 (36781) - http://www.bohemiancoding.com/sketch -->
    <title>Fill 41</title>
    <desc>Created with Sketch.</desc>
    <defs></defs>
    <g id="Page-1" stroke="none" stroke-width="1" fill="none" fill-rule="evenodd">
        <path d="M120.033374,127.408155 L110.654286,146.930157 L110.654286,115.524425 C110.722379,115.524425 110.802315,115.562912 110.855605,115.631005 L120.033374,126.898937 C120.145875,127.041044 120.145875,127.266048 120.033374,127.408155 M211.097564,43.8874983 L187.498856,57.9827749 C193.520657,65.0526174 194.72857,71.998116 194.72857,81.8153681 C194.72857,102.6341 179.306957,119.873503 159.296461,122.828152 C124.805813,124.678509 119.882385,101.769614 119.18369,95.6175481 C119.18369,95.6027453 119.180729,95.5879424 119.177769,95.5731396 L119.177769,92.3786839 C120.3768,80.9982506 131.769075,72.7056924 141.530077,67.6164715 C143.558068,66.7312609 145.760732,65.7868389 148.1884,64.7684026 C154.583232,62.0831651 162.40802,58.8975912 172.012111,55.0577311 C195.551608,45.6431167 210.55874,33.6320818 216.619028,19.3680528 C220.15395,11.0577311 219.647692,3.91683488 218.886825,0 C211.026511,6.8833266 186.385682,25.9938097 148.1884,34.333737 C137.503701,36.6637061 125.812407,38.1883999 113.073072,38.3216256 L106.923967,38.3216256 C95.4902436,38.2032028 84.8854797,36.9775266 75.1037545,35.044274 C35.0117077,27.1247477 9.19553223,7.07872426 1.11317454,0 C0.349347329,3.91683488 -0.156910241,11.0577311 3.37801103,19.3680528 C9.43829902,33.6320818 24.4454313,45.6431167 47.984928,55.0577311 C59.3120711,59.5903647 68.1612165,63.1933791 75.1037545,66.1628314 C76.2879828,66.6661284 77.3981967,67.1487014 78.4699233,67.6164715 C88.2309245,72.7056924 99.6202395,80.9982506 100.819271,92.3786839 L100.819271,95.5731396 C100.81631,95.5879424 100.81631,95.6027453 100.81631,95.6175481 C100.114655,101.769614 95.1912259,124.678509 60.7035392,122.828152 C40.6871215,119.873503 25.2714305,102.6341 25.2714305,81.8153681 C25.2714305,71.998116 26.4734222,65.0526174 32.5011439,57.9827749 L8.89947517,43.8874983 C3.07011169,53.3879693 0,64.2414211 0,75.4146145 C0,108.709191 27.0832997,135.792491 60.3778765,135.792491 C72.1461445,135.792491 83.1091374,132.358229 92.4082896,126.50222 L91.9316377,127.091374 C91.7184767,127.351904 91.7184767,127.784147 91.9316377,128.050599 L109.786839,165.20872 L127.63908,128.050599 C127.858162,127.784147 127.858162,127.351904 127.63908,127.091374 L126.750908,125.990042 C136.218813,132.165792 147.495626,135.792491 159.622124,135.792491 C192.91374,135.792491 220,108.709191 220,75.4146145 C220,64.2414211 216.929888,53.3879693 211.097564,43.8874983" id="Fill-41" fill="#C9A663"></path>
    </g>
</svg>