<?xml version="1.0" encoding="UTF-8"?>
<svg width="963px" height="223px" viewBox="0 0 963 223" version="1.1" xmlns="http://www.w3.org/2000/svg" xmlns:xlink="http://www.w3.org/1999/xlink">
    <!-- Generator: Sketch 42 (36781) - http://www.bohemiancoding.com/sketch -->
    <title>altamira-brand</title>
    <desc>Created with Sketch.</desc>
    <defs></defs>
    <g id="Behance" stroke="none" stroke-width="1" fill="none" fill-rule="evenodd">
        <g id="3-Process-Copy-2" transform="translate(-219.000000, -183.000000)" fill="#51287F">
            <g id="altamira-brand" transform="translate(219.000000, 183.000000)">
                <path d="M962.078294,161.505588 C960.67039,161.889412 958.570129,162.210368 956.506308,162.210368 C950.238652,162.210368 938.902542,160.089412 932.800521,144.058162 L929.27248,135.035 L890.228823,135.035 L879.068287,161.505588 L872.784067,161.505588 L911.870789,69.5401471 L916.014995,69.5401471 L946.713923,144.058162 C951.023765,154.537206 954.425923,158.021397 962.078294,158.683162 L962.078294,161.505588 Z M892.325772,129.436471 L926.516301,129.436471 L909.753964,89.0423529 L892.325772,129.436471 Z" id="Fill-4"></path>
                <path d="M639.41855,161.531397 C638.010646,161.954926 635.897134,162.213015 633.816749,162.213015 C627.50934,162.213015 616.17323,160.135074 609.99833,144.031029 L606.506729,134.981397 L567.280873,134.981397 L556.107086,161.531397 L549.799677,161.531397 L588.979155,69.2218382 L593.192928,69.2218382 L624.004488,144.031029 C628.370646,154.536544 631.716488,158.020735 639.41855,158.718897 L639.41855,161.531397 Z M569.394385,129.359706 L603.71411,129.359706 L586.892144,88.7968382 L569.394385,129.359706 Z" id="Fill-6"></path>
                <path d="M434.942555,161.36 C433.501524,161.776912 431.437703,162.058162 429.340755,162.058162 C423.069786,162.058162 411.766803,159.980221 405.651531,143.945662 L402.146679,134.896029 L363.079834,134.896029 L351.919298,161.36 L345.641703,161.36 L384.701923,69.4210294 L388.909071,69.4210294 L419.581497,143.945662 C423.914528,154.365147 427.276933,157.882426 434.942555,158.564044 L434.942555,161.36 Z M365.173469,129.323971 L399.347435,129.323971 L382.601662,88.9066912 L365.173469,129.323971 Z" id="Fill-8"></path>
                <path d="M446.520825,162.211691 C447.107175,143.705441 447.458323,128.216838 447.458323,115.778971 C447.458323,101.911691 447.107175,86.4131618 446.520825,69.2602206 C448.422323,69.6043382 450.545773,69.8127941 452.917677,69.8127941 C455.286268,69.8127941 457.336838,69.6043382 459.158832,69.2602206 C458.264399,91.6808088 457.830433,107.771618 457.830433,117.526029 C457.830433,127.177868 458.138515,139.913529 458.757993,155.789265 C460.566735,155.888529 463.674062,155.915 468.04022,155.915 C480.128316,155.915 489.390667,155.206912 495.797457,153.760956 L495.797457,155.789265 C495.721265,156.692574 495.688137,157.440368 495.688137,157.969779 C495.688137,158.44625 495.721265,159.111324 495.797457,159.998088 L495.797457,162.211691 L464.22066,161.778235 C457.846997,161.778235 451.970241,161.923824 446.520825,162.211691" id="Fill-10"></path>
                <path d="M518.003247,162.211691 C518.447151,137.273088 518.70223,115.980809 518.70223,98.3977206 L518.70223,75.6694118 L514.972113,75.6694118 C504.182601,75.6694118 495.851123,76.1888971 489.937927,77.2907353 C490.133377,75.6694118 490.226133,74.3988235 490.226133,73.4888971 C490.226133,72.4697794 490.133377,71.0800735 489.937927,69.2602206 C500.293474,69.515 511.145927,69.6572794 522.495288,69.6572794 C534.040099,69.6572794 546.134821,69.515 558.733075,69.2602206 C558.477996,70.47125 558.332236,71.7451471 558.332236,73.2175735 C558.332236,74.5741912 558.477996,75.9010294 558.733075,77.2907353 C552.634367,76.1888971 544.564594,75.6694118 534.497254,75.6694118 L530.531934,75.6694118 C530.081405,83.1936765 529.839577,93.3451471 529.839577,106.140368 C529.839577,122.644779 530.131096,141.336324 530.704195,162.211691 L524.545858,162.211691 L518.003247,162.211691 Z" id="Fill-12"></path>
                <path d="M767.404623,162.211691 C767.914781,153.641838 768.232801,141.958382 768.232801,127.085221 L768.232801,115.778971 C768.232801,93.0241912 767.914781,77.5157353 767.404623,69.2602206 C769.229929,69.6043382 771.277186,69.8127941 773.562959,69.8127941 C775.898423,69.8127941 778.031812,69.6043382 779.93331,69.2602206 C779.585475,75.2690441 779.370148,84.1532353 779.370148,95.9161029 L779.370148,115.778971 L779.370148,127.492206 L779.370148,138.235956 C779.370148,148.767941 779.585475,156.732279 779.93331,162.211691 C777.674038,161.718676 775.626781,161.506912 773.821351,161.506912 C772.012609,161.506912 769.832843,161.718676 767.404623,162.211691" id="Fill-14"></path>
                <path d="M800.101449,162.211691 C800.720926,151.663162 801.029009,136.174559 801.029009,115.778971 C801.029009,96.1179412 800.720926,80.5929412 800.101449,69.2602206 L806.36248,69.2602206 L816.184679,69.2602206 L828.173394,69.2602206 C848.602906,69.2602206 858.812693,76.5826471 858.812693,91.2407353 C858.812693,97.5572794 856.457353,102.920882 851.799676,107.341471 C847.092308,111.705809 840.37081,114.720147 831.565614,116.348088 C838.015469,124.80875 850.179758,140.138529 868.078356,162.211691 C865.053847,161.718676 862.344047,161.506912 859.912514,161.506912 C857.560487,161.506912 854.923566,161.718676 852.041504,162.211691 C844.839662,151.765735 839.221298,143.884118 835.040652,138.507279 L820.239442,119.491471 C818.71228,117.483015 816.877036,116.48375 814.799964,116.48375 C814.346122,116.48375 813.46494,116.563162 812.219359,116.741838 L812.219359,141.6275 C812.219359,146.908382 812.391621,153.760956 812.756019,162.211691 C810.490122,161.718676 808.409737,161.506912 806.471799,161.506912 C804.663057,161.506912 802.529669,161.718676 800.101449,162.211691 L800.101449,162.211691 Z M812.219359,112.523088 C813.286054,112.615735 814.799964,112.65875 816.681586,112.65875 C836.849394,112.65875 846.946548,105.988162 846.946548,92.6701471 C846.946548,80.4109559 839.184858,74.2730882 823.581971,74.2730882 C820.901985,74.2730882 817.337504,74.4286029 813.014411,74.7032353 C812.50094,78.6903676 812.219359,83.3028676 812.219359,88.5771324 L812.219359,112.523088 Z" id="Fill-16"></path>
                <path d="M345.85206,199.961066 C345.799057,198.349669 345.709614,196.672096 345.643359,194.958125 C345.994507,195.011066 346.309215,195.044154 346.627236,195.093787 C346.918755,195.126875 347.223524,195.159963 347.541545,195.159963 C347.85294,195.159963 348.174274,195.126875 348.49892,195.093787 C348.783813,195.044154 349.131648,195.011066 349.449669,194.958125 C349.383414,196.672096 349.307222,198.349669 349.240968,199.961066 C349.181339,201.60886 349.148212,203.26989 349.148212,204.973934 L349.148212,211.647831 C349.148212,213.351875 349.181339,215.022831 349.240968,216.677243 C349.307222,218.328346 349.383414,219.943051 349.449669,221.554449 C348.876569,221.501507 348.23059,221.451875 347.541545,221.451875 C346.879002,221.451875 346.26615,221.501507 345.643359,221.554449 C345.709614,219.943051 345.799057,218.328346 345.85206,216.677243 C345.944816,215.022831 345.944816,213.351875 345.944816,211.647831 L345.944816,204.973934 C345.944816,203.26989 345.944816,201.60886 345.85206,199.961066" id="Fill-18"></path>
                <path d="M386.505365,211.496618 C383.136334,207.893309 379.790492,204.299926 376.428087,200.785956 C376.411523,201.497353 376.368458,202.446985 376.368458,203.664632 C376.318767,204.878971 376.318767,206.54 376.318767,208.634485 C376.318767,209.160588 376.318767,209.835588 376.338643,210.639632 C376.368458,211.453603 376.368458,212.284118 376.368458,213.157647 C376.411523,214.024559 376.411523,214.904706 376.428087,215.844412 C376.44465,216.734485 376.48109,217.565 376.48109,218.326029 C376.537406,219.110221 376.537406,219.788529 376.570533,220.3775 C376.570533,220.946618 376.620224,221.33375 376.6401,221.555441 C376.242575,221.5025 375.782107,221.452868 375.311702,221.452868 C374.791605,221.452868 374.3212,221.5025 373.873984,221.555441 C373.907111,221.300662 373.956801,220.830809 374.032994,220.126029 C374.12575,219.42125 374.175441,218.590735 374.238382,217.624559 C374.271509,216.648456 374.3212,215.609485 374.397392,214.467941 C374.44377,213.336324 374.503399,212.191471 374.536526,211.069779 C374.586217,209.915 374.586217,208.826397 374.649159,207.734485 C374.66241,206.642574 374.682286,205.669779 374.682286,204.822721 C374.682286,202.360956 374.66241,200.230074 374.66241,198.453235 C374.649159,196.673088 374.586217,195.326397 374.556403,194.456176 L375.185819,194.456176 C376.74942,196.176765 378.442217,197.980074 380.244334,199.928971 C382.026575,201.901029 383.841942,203.806912 385.607619,205.712794 C387.363358,207.60875 389.042904,209.388897 390.623069,211.069779 C392.206547,212.773824 393.591262,214.213162 394.783839,215.394412 L394.783839,210.136691 C394.783839,207.420147 394.757337,204.779706 394.710959,202.212059 C394.691083,199.657647 394.618203,197.242206 394.475757,194.959118 C394.995853,195.091471 395.449695,195.160956 395.810781,195.160956 C396.112238,195.160956 396.509764,195.091471 397.046423,194.959118 C396.996733,195.528235 396.92054,196.385221 396.854286,197.526765 C396.817846,198.668309 396.744966,199.869412 396.668774,201.146618 C396.61577,202.427132 396.539578,203.697721 396.4932,204.955074 C396.443509,206.172721 396.417008,207.181912 396.417008,207.919779 L396.417008,210.255809 C396.417008,211.126029 396.417008,212.035956 396.443509,212.998824 C396.473324,213.948456 396.473324,214.904706 396.473324,215.887426 C396.4932,216.870147 396.4932,217.760221 396.509764,218.590735 C396.509764,219.444412 396.539578,220.159118 396.539578,220.781176 L396.539578,222.055074 L395.986355,222.055074 C393.038038,218.613897 389.86777,215.116471 386.505365,211.496618" id="Fill-20"></path>
                <path d="M421.756625,217.928309 C422.101148,218.414706 422.511924,218.848162 423.032021,219.228676 C423.538866,219.622426 424.135155,219.940074 424.797698,220.178309 C425.443677,220.429779 426.218852,220.529044 427.027155,220.529044 C427.87521,220.529044 428.650385,220.396691 429.35268,220.112132 C430.018536,219.824265 430.604887,219.404044 431.075292,218.917647 C431.578825,218.398162 431.943223,217.799265 432.19499,217.120956 C432.450069,216.449265 432.572639,215.727941 432.572639,214.937132 C432.572639,213.755882 432.320873,212.809559 431.674893,212.111397 C431.062041,211.393382 430.30343,210.824265 429.405684,210.354412 C428.504625,209.911029 427.514124,209.464338 426.470619,209.080515 C425.427113,208.693382 424.469739,208.223529 423.538866,207.644485 C422.64112,207.048897 421.895759,206.324265 421.269656,205.401103 C420.696557,204.511029 420.371911,203.286765 420.371911,201.774632 C420.371911,200.682721 420.557423,199.703309 420.968199,198.8 C421.342536,197.923162 421.915636,197.158824 422.64112,196.503676 C423.379856,195.871691 424.241162,195.358824 425.30123,195.011397 C426.328172,194.620956 427.49756,194.455515 428.792832,194.455515 C430.018536,194.455515 431.091856,194.614338 432.01279,194.898897 C432.917162,195.193382 433.742027,195.656618 434.530454,196.278676 C434.298564,196.722059 434.08655,197.181985 433.917601,197.688235 C433.791718,198.148162 433.629395,198.786765 433.490261,199.524632 L433.003292,199.524632 C432.874096,199.173897 432.698522,198.753676 432.479883,198.35 C432.264557,197.923162 431.976351,197.532721 431.598701,197.165441 C431.187924,196.788235 430.773835,196.503676 430.270302,196.258824 C429.746893,196.007353 429.12079,195.898162 428.395306,195.898162 C427.673134,195.898162 427.010591,196.007353 426.394426,196.215809 C425.788199,196.467279 425.271416,196.788235 424.797698,197.225 C424.363732,197.628676 424.029148,198.148162 423.757505,198.753676 C423.51899,199.349265 423.412983,199.98125 423.412983,200.682721 C423.412983,201.900368 423.697876,202.846691 424.294165,203.561397 C424.907017,204.243015 425.682192,204.838603 426.546811,205.318382 C427.480997,205.771691 428.428433,206.231618 429.511691,206.592279 C430.555196,206.962868 431.502632,207.419485 432.430192,207.972059 C433.327938,208.508088 434.08655,209.212868 434.6729,210.069853 C435.305629,210.923529 435.590522,212.035294 435.590522,213.468015 C435.590522,214.659191 435.414948,215.7875 434.984296,216.826471 C434.530454,217.891912 433.901038,218.818382 433.109299,219.589338 C432.320873,220.376838 431.293931,220.988971 430.127856,221.409191 C428.951842,221.855882 427.60688,222.057721 426.109533,222.057721 C424.516117,222.057721 423.194344,221.855882 422.210467,221.409191 C421.219966,220.988971 420.401725,220.5125 419.722619,219.986397 C419.957821,219.364338 420.100268,218.834926 420.193024,218.378309 C420.275842,217.891912 420.371911,217.279779 420.461354,216.515441 L420.905258,216.515441 C421.14046,217.005147 421.392227,217.441912 421.756625,217.928309" id="Fill-22"></path>
                <path d="M463.847979,196.973529 C463.202,196.973529 462.476515,196.990074 461.717904,197.006618 C460.989107,197.006618 460.266935,197.043015 459.544763,197.05625 C458.786151,197.109191 458.073918,197.158824 457.401436,197.205147 C456.72233,197.274632 456.089601,197.307721 455.552942,197.390441 C455.695388,196.923897 455.745079,196.540074 455.745079,196.176103 C455.745079,195.881618 455.695388,195.461397 455.552942,194.958456 C457.275553,195.011397 458.912034,195.044485 460.568392,195.094118 C462.175058,195.123897 463.847979,195.160294 465.537464,195.160294 C467.246825,195.160294 468.923058,195.123897 470.552914,195.094118 C472.192708,195.044485 473.849065,195.011397 475.561739,194.958456 C475.419292,195.461397 475.376227,195.898162 475.376227,196.202574 C475.376227,196.546691 475.419292,196.923897 475.561739,197.390441 C474.998577,197.307721 474.372474,197.274632 473.706619,197.205147 C473.027512,197.158824 472.318591,197.109191 471.563292,197.05625 C470.847746,197.043015 470.10901,197.006618 469.370275,197.006618 C468.628227,196.990074 467.929244,196.973529 467.246825,196.973529 C467.177258,199.64375 467.157381,202.313971 467.157381,204.974265 L467.157381,211.648162 C467.157381,213.352206 467.177258,215.023162 467.223636,216.677574 C467.299828,218.328676 467.376021,219.940074 467.442275,221.554779 C466.845986,221.501838 466.21657,221.452206 465.537464,221.452206 C464.891485,221.452206 464.23888,221.501838 463.662467,221.554779 C463.755223,219.940074 463.81154,218.328676 463.881107,216.677574 C463.917546,215.023162 463.973863,213.352206 463.973863,211.648162 L463.973863,204.974265 C463.973863,202.313971 463.917546,199.64375 463.847979,196.973529" id="Fill-24"></path>
                <path d="M497.482966,199.961066 C497.393523,198.349669 497.330581,196.672096 497.247764,194.958125 C497.598911,195.011066 497.930183,195.044154 498.234953,195.093787 C498.543035,195.126875 498.844492,195.159963 499.172451,195.159963 C499.477221,195.159963 499.785303,195.126875 500.08676,195.093787 C500.374966,195.044154 500.719489,195.011066 501.060698,194.958125 C500.987819,196.672096 500.911626,198.349669 500.828808,199.961066 C500.769179,201.60886 500.73274,203.26989 500.73274,204.973934 L500.73274,211.647831 C500.73274,213.351875 500.769179,215.022831 500.828808,216.677243 C500.911626,218.328346 500.987819,219.943051 501.060698,221.554449 C500.46441,221.501507 499.81843,221.451875 499.172451,221.451875 C498.486719,221.451875 497.850678,221.501507 497.247764,221.554449 C497.330581,219.943051 497.393523,218.328346 497.482966,216.677243 C497.53597,215.022831 497.565784,213.351875 497.565784,211.647831 L497.565784,204.973934 C497.565784,203.26989 497.53597,201.60886 497.482966,199.961066" id="Fill-26"></path>
                <path d="M531.059981,196.973529 C530.370936,196.973529 529.69183,196.990074 528.933218,197.006618 C528.211046,197.006618 527.455747,197.043015 526.720324,197.05625 C525.998153,197.109191 525.279293,197.158824 524.600187,197.205147 C523.914455,197.274632 523.301603,197.307721 522.76163,197.390441 C522.890826,196.923897 522.960393,196.540074 522.960393,196.176103 C522.960393,195.881618 522.890826,195.461397 522.76163,194.958456 C524.470991,195.011397 526.143912,195.044485 527.76383,195.094118 C529.38706,195.123897 531.059981,195.160294 532.766029,195.160294 C534.472077,195.160294 536.128434,195.123897 537.754977,195.094118 C539.391458,195.044485 541.047816,195.011397 542.747238,194.958456 C542.624668,195.461397 542.558414,195.898162 542.558414,196.202574 C542.558414,196.546691 542.624668,196.923897 542.747238,197.390441 C542.213891,197.307721 541.584476,197.274632 540.935184,197.205147 C540.213012,197.158824 539.500778,197.109191 538.775293,197.05625 C538.036558,197.043015 537.321012,197.006618 536.582276,197.006618 C535.840228,196.990074 535.121369,196.973529 534.472077,196.973529 C534.389259,199.64375 534.372696,202.313971 534.372696,204.974265 L534.372696,211.648162 C534.372696,213.352206 534.389259,215.023162 534.442263,216.677574 C534.531706,218.328676 534.578084,219.940074 534.674153,221.554779 C534.044737,221.501838 533.448448,221.452206 532.766029,221.452206 C532.086922,221.452206 531.457507,221.501838 530.854592,221.554779 C530.934098,219.940074 530.997039,218.328676 531.076544,216.677574 C531.142799,215.023162 531.165988,213.352206 531.165988,211.648162 L531.165988,204.974265 C531.165988,202.313971 531.129548,199.64375 531.059981,196.973529" id="Fill-28"></path>
                <path d="M584.917435,199.062721 C584.87437,197.090662 584.824679,195.697647 584.731923,194.959779 C585.000253,195.009412 585.298397,195.0425 585.546851,195.092132 C585.80193,195.125221 586.053696,195.158309 586.318713,195.158309 C586.643359,195.158309 587.037573,195.092132 587.488102,194.959779 C587.415222,195.873015 587.345655,196.948382 587.236335,198.189191 C587.160143,199.423382 587.110452,200.786618 587.057449,202.212721 C586.987882,203.64875 586.968005,205.114559 586.911689,206.626691 C586.878562,208.142132 586.825559,209.614559 586.76593,211.007574 C586.752679,212.757941 586.481036,214.299853 585.957627,215.659779 C585.473971,217.029632 584.791552,218.187721 583.817614,219.137353 C582.916555,220.110147 581.763731,220.831471 580.422081,221.317868 C579.050617,221.804265 577.477078,222.055735 575.741215,222.055735 C571.865339,222.055735 569.039593,221.185515 567.283854,219.421912 C565.538054,217.674853 564.636995,214.905368 564.636995,211.110147 C564.636995,209.8925 564.673435,208.810515 564.779442,207.860882 C564.815882,206.91125 564.855634,205.964926 564.855634,204.975588 C564.855634,202.814926 564.815882,200.902426 564.799318,199.205 C564.719813,197.534044 564.673435,196.117868 564.620432,194.959779 C564.938452,195.009412 565.263098,195.0425 565.63081,195.092132 C565.998521,195.125221 566.32648,195.158309 566.598122,195.158309 C566.922768,195.158309 567.191098,195.125221 567.459428,195.092132 C567.744322,195.0425 567.999401,195.009412 568.284294,194.959779 C568.251167,195.528897 568.198164,196.256838 568.141847,197.183309 C568.105408,198.096544 568.032528,199.138824 567.982837,200.283676 C567.933146,201.474853 567.890081,202.699118 567.873518,204.049118 C567.84039,205.385882 567.823827,206.795441 567.823827,208.228162 C567.823827,209.128162 567.84039,210.034779 567.873518,210.96125 C567.890081,211.9175 567.982837,212.830735 568.141847,213.720809 C568.284294,214.604265 568.539373,215.46125 568.880583,216.281838 C569.258232,217.085882 569.748514,217.800588 570.394493,218.399485 C571.043786,219.018235 571.848775,219.471544 572.839277,219.822279 C573.799964,220.179632 575.032294,220.345074 576.453449,220.345074 C577.901105,220.345074 579.083744,220.156471 580.060995,219.746176 C581.008432,219.302794 581.803483,218.783309 582.44615,218.111618 C583.042438,217.43 583.545971,216.649118 583.890493,215.785515 C584.22839,214.905368 584.523222,213.99875 584.665669,213.059044 C584.791552,212.076324 584.87437,211.126691 584.917435,210.170441 C584.953875,209.227426 584.970438,208.340662 584.970438,207.526691 C584.970438,203.87375 584.953875,201.051324 584.917435,199.062721" id="Fill-30"></path>
                <path d="M617.610948,196.973529 C616.964969,196.973529 616.259361,196.990074 615.527251,197.006618 C614.771952,197.006618 614.046467,197.043015 613.291168,197.05625 C612.595498,197.109191 611.856763,197.158824 611.167718,197.205147 C610.501863,197.274632 609.88901,197.307721 609.352351,197.390441 C609.441794,196.923897 609.53455,196.540074 609.53455,196.176103 C609.53455,195.881618 609.441794,195.461397 609.352351,194.958456 C611.04846,195.011397 612.737945,195.044485 614.334674,195.094118 C615.974467,195.123897 617.610948,195.160294 619.340186,195.160294 C621.049546,195.160294 622.722467,195.123897 624.342385,195.094118 C625.955677,195.044485 627.638536,195.011397 629.347897,194.958456 C629.185574,195.461397 629.142509,195.898162 629.142509,196.202574 C629.142509,196.546691 629.185574,196.923897 629.347897,197.390441 C628.764859,197.307721 628.175196,197.274632 627.486151,197.205147 C626.790481,197.158824 626.068309,197.109191 625.34945,197.05625 C624.630591,197.043015 623.855416,197.006618 623.15312,197.006618 C622.417698,196.990074 621.695526,196.973529 621.049546,196.973529 C620.95679,199.64375 620.923663,202.313971 620.923663,204.974265 L620.923663,211.648162 C620.923663,213.352206 620.95679,215.023162 621.016419,216.677574 C621.082674,218.328676 621.158866,219.940074 621.254935,221.554779 C620.635457,221.501838 620.025918,221.452206 619.340186,221.452206 C618.654454,221.452206 618.041601,221.501838 617.408873,221.554779 C617.504942,219.940074 617.577821,218.328676 617.647388,216.677574 C617.703704,215.023162 617.756708,213.352206 617.756708,211.648162 L617.756708,204.974265 C617.756708,202.313971 617.703704,199.64375 617.610948,196.973529" id="Fill-32"></path>
                <path d="M672.131608,202.756029 C671.611512,201.187647 670.856213,199.893897 669.872337,198.868162 C668.914962,197.878824 667.76545,197.124412 666.470179,196.621471 C665.171595,196.135074 663.753753,195.896838 662.226591,195.896838 C660.742495,195.896838 659.308089,196.135074 658.029381,196.621471 C656.710921,197.124412 655.584598,197.878824 654.61066,198.868162 C653.659911,199.893897 652.87811,201.187647 652.338137,202.756029 C651.821354,204.30125 651.516584,206.1575 651.516584,208.304926 C651.516584,210.455662 651.821354,212.301985 652.338137,213.870368 C652.87811,215.425515 653.659911,216.735809 654.61066,217.725147 C655.584598,218.767426 656.710921,219.521838 658.029381,219.998309 C659.308089,220.494632 660.742495,220.732868 662.226591,220.732868 C663.753753,220.732868 665.171595,220.494632 666.470179,219.998309 C667.76545,219.521838 668.914962,218.767426 669.872337,217.725147 C670.856213,216.735809 671.611512,215.425515 672.131608,213.870368 C672.714646,212.301985 672.986289,210.455662 672.986289,208.304926 C672.986289,206.1575 672.714646,204.30125 672.131608,202.756029 M648.793533,202.448309 C649.515704,200.740956 650.492955,199.275147 651.781601,198.080662 C653.043746,196.922574 654.594096,196.006029 656.3929,195.380662 C658.175141,194.791691 660.116392,194.4575 662.226591,194.4575 C664.359979,194.4575 666.324419,194.791691 668.126536,195.380662 C669.885588,196.006029 671.435938,196.922574 672.714646,198.080662 C673.993354,199.275147 674.997107,200.740956 675.696089,202.448309 C676.418261,204.158971 676.762784,206.114485 676.762784,208.304926 C676.762784,210.505294 676.418261,212.454191 675.696089,214.181397 C674.997107,215.885441 673.993354,217.357868 672.714646,218.5325 C671.435938,219.723676 669.885588,220.597206 668.126536,221.182868 C666.324419,221.765221 664.359979,222.056397 662.226591,222.056397 C660.116392,222.056397 658.175141,221.765221 656.3929,221.182868 C654.594096,220.597206 653.043746,219.723676 651.781601,218.5325 C650.492955,217.357868 649.515704,215.885441 648.793533,214.181397 C648.09455,212.454191 647.733464,210.505294 647.733464,208.304926 C647.733464,206.114485 648.09455,204.158971 648.793533,202.448309" id="Fill-34"></path>
                <path d="M741.457122,215.786838 C741.728764,215.280588 742.076599,214.569191 742.566881,213.679118 C743.073726,212.755956 743.633575,211.713676 744.299431,210.5225 C744.94541,209.344559 745.59139,208.037574 746.383129,206.657794 C747.072173,205.307794 747.840723,203.875074 748.619211,202.47875 C749.331445,201.052647 750.133122,199.679485 750.885108,198.293088 C751.637094,196.923235 752.322826,195.655956 752.972118,194.454853 L753.459087,194.454853 C753.760544,196.923235 754.015623,199.325441 754.250826,201.641618 C754.515843,203.951176 754.754359,206.234265 755.03594,208.457794 C755.257891,210.681324 755.526221,212.891618 755.794551,215.072132 C756.04963,217.255956 756.314647,219.419926 756.645919,221.554118 C756.314647,221.501176 756.033067,221.451544 755.74486,221.451544 L754.820613,221.451544 L753.902991,221.451544 C753.618098,221.451544 753.306702,221.501176 753.001933,221.554118 C752.700476,218.126176 752.435458,214.777647 752.140627,211.571397 C751.868984,208.338676 751.507898,205.049706 751.097122,201.687941 L751.001053,201.687941 C749.222125,204.957059 747.499513,208.169926 745.793465,211.396029 C744.064228,214.602279 742.407871,217.967353 740.874084,221.451544 L740.529562,221.451544 C738.985836,218.232059 737.346043,214.953015 735.659871,211.700441 C733.967074,208.457794 732.261025,205.089412 730.564915,201.687941 C730.296586,203.286103 730.101135,205.033162 729.865933,206.912574 C729.680421,208.782059 729.428654,210.621765 729.306084,212.418456 C729.09407,214.264779 728.925122,215.97875 728.822427,217.583529 C728.699857,219.204853 728.640228,220.528382 728.640228,221.554118 C728.212888,221.501176 727.759046,221.451544 727.272077,221.451544 C726.788421,221.451544 726.321328,221.501176 725.927115,221.554118 C726.245135,219.462941 726.602909,217.255956 726.947431,214.936471 C727.31183,212.613676 727.672915,210.280956 728.0075,207.921765 C728.335458,205.575809 728.656792,203.269559 728.925122,200.976544 C729.219953,198.683529 729.428654,196.539412 729.680421,194.454853 L730.309836,194.454853 C732.108641,198.130956 733.907445,201.687941 735.749314,205.135735 C737.567995,208.606691 739.469493,212.150441 741.457122,215.786838 Z" id="Fill-36"></path>
                <path d="M226.691391,143.570441 C205.77491,161.156838 179.972175,177.462721 163.534484,188.471176 C159.993192,185.923382 153.689096,179.831838 145.801522,171.635882 C136.595487,179.755735 124.620023,183.001691 113.770882,179.047647 C113.257412,178.8425 112.747254,178.56125 112.233783,178.299853 C134.369343,201.984412 154.679597,220.540294 162.85869,220.556838 C168.523432,220.97375 217.279968,182.234044 253.809274,150.002794 C244.586676,152.285882 234.800917,149.705 226.691391,143.570441" id="Fill-50"></path>
                <path d="M102.134641,166.864559 C112.983781,174.28625 127.579603,172.999118 139.462311,164.905735 C113.07985,136.671544 74.6324825,91.4663971 56.8829567,67.6891912 C72.6216646,71.6498529 115.160235,78.9061029 153.143823,75.5509559 C157.596111,75.1505882 162.184221,74.6211765 166.765706,74.0553676 C166.109788,43.5910294 146.584647,18.3811029 120.397637,16.1013235 C118.519328,15.9358824 116.697335,15.8994853 114.809087,15.9656618 C114.97141,15.9358824 115.160235,15.88625 115.322558,15.8366176 C101.332964,16.4553676 87.2141732,16.6307353 73.337211,16.0450735 C31.129912,13.5369853 1.39498419,0.907205882 1.39498419,0.907205882 L0.941142268,4.54360294 C-2.20593677,31.0505882 29.0495271,78.0127206 61.6102007,119.220809 C73.0986955,133.756471 86.9756577,150.370074 100.872496,165.858676 C101.3164,166.182941 101.680799,166.540294 102.134641,166.864559" id="Fill-52"></path>
                <path d="M315.206136,52.7667279 C312.56259,36.7884191 300.560624,21.4983456 285.80248,14.0137868 C262.25239,0.242463235 208.523469,8.79577206 148.709091,13.6663603 C170.059538,22.2560662 181.856115,46.4005515 178.881298,72.4145221 C217.683126,66.9417279 254.702713,60.9461397 260.476775,91.2020221 C263.163387,105.247978 251.181298,121.451287 234.104253,137.095404 C245.516555,143.29614 258.704473,143.570772 268.566425,136.483272 C269.222342,136.020037 269.828569,135.500551 270.41492,134.981066 C279.511634,126.546875 286.759854,119.270772 290.831181,114.347243 C305.678768,96.3637868 318.449284,72.0670956 315.206136,52.7667279" id="Fill-54"></path>
                <path d="M642.618301,162.211691 C645.834947,148.119412 650.492624,116.563162 656.657586,67.4966176 L659.089119,67.43375 C674.138782,97.7425735 686.905985,122.356912 697.314535,141.336324 C708.932225,120.745515 722.34872,96.1477206 737.564019,67.4966176 L739.356198,67.4966176 C741.711538,90.4433088 745.345586,121.99625 750.18215,162.211691 C747.886438,161.718676 745.839181,161.506912 744.047002,161.506912 C742.191882,161.506912 740.124748,161.718676 737.855538,162.211691 C735.536638,128.3525 733.197861,105.766471 730.845834,94.3576471 C713.000239,124.137059 701.332858,146.733015 695.886755,162.211691 L693.995195,162.211691 C692.077133,155.63375 687.757353,146.117574 681.062356,133.603603 L659.728473,94.3047059 C655.491511,124.451397 653.262054,147.080441 653.119607,162.211691 C651.290988,161.718676 649.611442,161.506912 648.074342,161.506912 C646.543868,161.506912 644.715249,161.718676 642.618301,162.211691" id="Fill-48"></path>
                <path d="M791.02726,186.470331 C791.33203,186.470331 791.580484,186.589449 791.898504,186.784669 C792.176773,186.993125 792.322532,187.300846 792.322532,187.71114 C792.322532,188.174375 792.176773,188.538346 791.875315,188.829522 C791.567233,189.097537 791.262463,189.319228 790.937817,189.534301 L785.256511,193.180625 L783.600154,193.180625 L789.304649,187.419963 C789.953941,186.784669 790.507164,186.470331 791.02726,186.470331 M779.624896,199.894228 C779.60502,198.282831 779.4957,196.605257 779.422821,194.957463 C780.572333,195.010404 781.738408,195.043493 782.891233,195.093125 C784.030807,195.126213 785.216759,195.159301 786.372896,195.159301 C787.519096,195.159301 788.691797,195.126213 789.828058,195.093125 C790.957693,195.043493 792.084016,195.010404 793.263343,194.957463 C793.187151,195.344596 793.154023,195.715184 793.154023,196.11886 C793.154023,196.502684 793.187151,196.886507 793.263343,197.276949 C792.431852,197.240551 791.676553,197.180993 790.994133,197.124743 C790.285212,197.091654 789.576291,197.022169 788.797803,196.972537 C788.059068,196.922904 787.247453,196.873272 786.329831,196.836875 C785.432085,196.790551 784.35214,196.780625 783.080058,196.780625 C783.043618,197.61114 783.017116,198.385404 782.964113,199.139816 C782.911109,199.894228 782.911109,200.76114 782.911109,201.690919 L782.911109,204.645699 C782.950862,205.575478 782.950862,206.323272 782.950862,206.809669 C784.08381,206.809669 785.110752,206.796434 786.025061,206.776581 C786.909556,206.736875 787.731109,206.720331 788.489721,206.660772 C789.24502,206.627684 789.953941,206.591287 790.580044,206.561507 C791.212773,206.528419 791.799123,206.472169 792.378848,206.392757 C792.292718,206.809669 792.292718,207.223272 792.292718,207.626949 C792.292718,207.98761 792.292718,208.397904 792.378848,208.781728 C791.716305,208.695699 790.921254,208.632831 790.000319,208.576581 C789.139013,208.540184 788.254518,208.510404 787.356773,208.490551 C786.472278,208.474007 785.630848,208.457463 784.839109,208.457463 C784.030807,208.457463 783.411329,208.440919 782.950862,208.440919 C782.950862,208.669228 782.950862,208.904154 782.911109,209.178787 L782.911109,210.197904 L782.911109,211.723272 L782.911109,214.049375 L782.911109,217.675846 C782.950862,218.628787 782.964113,219.346801 782.987302,219.839816 L785.700415,219.839816 C786.674353,219.839816 787.648291,219.823272 788.582477,219.790184 C789.533226,219.747169 790.430972,219.690919 791.279027,219.624743 C792.113831,219.571801 792.845941,219.472537 793.472044,219.346801 C793.425666,219.522169 793.362724,219.747169 793.346161,219.94239 C793.346161,220.157463 793.329597,220.379154 793.329597,220.528051 C793.329597,220.948272 793.362724,221.302316 793.472044,221.553787 C792.292718,221.500846 791.120016,221.451213 790.000319,221.451213 L786.472278,221.451213 L782.950862,221.451213 C781.80135,221.451213 780.60546,221.500846 779.422821,221.553787 C779.4957,219.905993 779.60502,218.261507 779.624896,216.620331 C779.691151,214.989081 779.730903,213.311507 779.730903,211.614081 L779.730903,204.956728 C779.730903,203.252684 779.691151,201.57511 779.624896,199.894228" id="Fill-38"></path>
                <path d="M819.961505,219.841471 C820.50479,219.98375 821.243526,220.092941 822.190962,220.142574 C823.118522,220.218676 824.065959,220.235221 825.039897,220.235221 C826.464364,220.235221 827.89877,220.059853 829.316612,219.748824 C830.741079,219.404706 831.999911,218.766103 833.119608,217.842941 C834.239306,216.899926 835.190055,215.649191 835.875787,214.008015 C836.591333,212.403235 836.949107,210.321985 836.949107,207.770882 C836.949107,205.520882 836.684089,203.67125 836.14743,202.228603 C835.547828,200.785956 834.809093,199.657647 833.821904,198.800662 C832.867842,197.980074 831.711704,197.391103 830.36343,197.056912 C829.015155,196.739265 827.537684,196.587059 825.940955,196.587059 C824.77488,196.587059 823.688309,196.620147 822.681244,196.722721 C821.654302,196.778971 820.77312,196.874926 819.961505,196.974191 C819.872062,198.218309 819.825684,199.50875 819.785931,200.85875 C819.785931,202.212059 819.729615,203.608382 819.729615,204.974926 L819.729615,211.648824 C819.729615,214.434853 819.785931,217.161324 819.961505,219.841471 M816.436777,199.962059 C816.387086,198.350662 816.350646,196.673088 816.241326,194.959118 C817.228515,195.012059 818.202454,195.041838 819.176392,195.094779 C820.160268,195.124559 821.134206,195.160956 822.108144,195.160956 C823.062206,195.160956 824.049395,195.124559 825.016708,195.041838 C825.990646,194.992206 826.967897,194.959118 827.958399,194.959118 C830.201107,194.959118 832.158921,195.270147 833.798715,195.872353 C835.385505,196.451397 836.713904,197.275294 837.757409,198.38375 C838.784351,199.472353 839.539649,200.815735 840.026619,202.407279 C840.513588,203.992206 840.74879,205.772353 840.74879,207.770882 C840.74879,210.355074 840.298261,212.535588 839.39389,214.3025 C838.516021,216.079338 837.383072,217.492206 835.975168,218.574191 C834.613643,219.656176 833.103045,220.430441 831.430124,220.873824 C829.730701,221.33375 828.153849,221.555441 826.623375,221.555441 C825.755443,221.555441 824.89745,221.538897 824.032832,221.5025 C823.168213,221.5025 822.34666,221.452868 821.458852,221.452868 L818.828557,221.452868 C817.980502,221.452868 817.139072,221.5025 816.241326,221.555441 C816.350646,219.940735 816.387086,218.326029 816.436777,216.674926 C816.529533,215.023824 816.56266,213.352868 816.56266,211.648824 L816.56266,204.974926 C816.56266,203.270882 816.529533,201.606544 816.436777,199.962059" id="Fill-40"></path>
                <path d="M864.045788,199.961066 C864.015974,198.349669 863.903342,196.672096 863.837087,194.958125 C864.174984,195.011066 864.49963,195.044154 864.8044,195.093787 C865.112482,195.126875 865.437129,195.159963 865.748524,195.159963 C866.033417,195.159963 866.374627,195.126875 866.676084,195.093787 C866.980854,195.044154 867.308812,195.011066 867.626833,194.958125 C867.577142,196.672096 867.467823,198.349669 867.434696,199.961066 C867.34194,201.60886 867.34194,203.26989 867.34194,204.973934 L867.34194,211.647831 C867.34194,213.351875 867.34194,215.022831 867.434696,216.677243 C867.467823,218.328346 867.577142,219.943051 867.626833,221.554449 C867.040482,221.501507 866.411067,221.451875 865.748524,221.451875 C865.056166,221.451875 864.426751,221.501507 863.837087,221.554449 C863.903342,219.943051 864.015974,218.328346 864.045788,216.677243 C864.10873,215.022831 864.155108,213.351875 864.155108,211.647831 L864.155108,204.973934 C864.155108,203.26989 864.10873,201.60886 864.045788,199.961066" id="Fill-42"></path>
                <path d="M911.32651,220.665368 C910.786537,220.890368 910.190249,221.082279 909.468077,221.300662 C908.752531,221.5025 907.977355,221.644779 907.099486,221.823456 C906.195115,221.975662 905.284118,222.055074 904.323431,222.055074 C902.305988,222.055074 900.397864,221.763897 898.678565,221.184853 C896.942702,220.595882 895.448668,219.722353 894.213025,218.531176 C892.934318,217.356544 891.976943,215.887426 891.264709,214.183382 C890.542537,212.452868 890.194702,210.503971 890.194702,208.306912 C890.194702,206.116471 890.542537,204.160956 891.264709,202.446985 C891.976943,200.742941 892.950881,199.273824 894.229589,198.082647 C895.504984,196.924559 897.052022,196.004706 898.821012,195.379338 C900.619816,194.790368 902.590881,194.456176 904.73752,194.456176 C906.430318,194.456176 907.997232,194.621618 909.385259,194.975662 C910.822977,195.326397 912.065245,195.713529 913.125314,196.216471 C912.946427,196.587059 912.764228,197.09 912.648283,197.695515 C912.492586,198.334118 912.39983,198.853603 912.317012,199.273824 L912.09506,199.34 C911.82673,199.035588 911.44908,198.678235 910.995238,198.294412 C910.534771,197.913897 909.991486,197.533382 909.385259,197.162794 C908.752531,196.788897 908.066799,196.504338 907.291623,196.259485 C906.499885,196.004706 905.65183,195.898824 904.73752,195.898824 C903.207046,195.898824 901.799142,196.13375 900.49062,196.620147 C899.178785,197.123088 898.045836,197.8775 897.052022,198.870147 C896.117836,199.892574 895.36585,201.186324 894.786125,202.754706 C894.266029,204.299926 893.997699,206.156176 893.997699,208.306912 C893.997699,210.454338 894.266029,212.300662 894.786125,213.869044 C895.36585,215.4275 896.117836,216.737794 897.052022,217.727132 C898.045836,218.766103 899.178785,219.520515 900.49062,220.000294 C901.799142,220.496618 903.207046,220.734853 904.73752,220.734853 C905.65183,220.734853 906.499885,220.6025 907.304874,220.394044 C908.106551,220.159118 908.818785,219.891103 909.468077,219.556912 C910.140558,219.245882 910.730221,218.881912 911.29007,218.511324 C911.800228,218.1275 912.224256,217.826397 912.585342,217.521985 L912.744352,217.6775 L912.39983,219.98375 C912.148063,220.159118 911.800228,220.394044 911.32651,220.665368" id="Fill-44"></path>
                <path d="M957.898642,202.756029 C957.378546,201.187647 956.616621,199.893897 955.622807,198.868162 C954.672058,197.878824 953.542422,197.124412 952.220649,196.621471 C950.945254,196.135074 949.490972,195.896838 947.980374,195.896838 C946.483027,195.896838 945.088374,196.135074 943.766601,196.621471 C942.477955,197.124412 941.358257,197.878824 940.364443,198.868162 C939.39713,199.893897 938.641831,201.187647 938.098546,202.756029 C937.55526,204.30125 937.270367,206.1575 937.270367,208.304926 C937.270367,210.455662 937.55526,212.301985 938.098546,213.870368 C938.641831,215.425515 939.39713,216.735809 940.364443,217.725147 C941.358257,218.767426 942.477955,219.521838 943.766601,219.998309 C945.088374,220.494632 946.483027,220.732868 947.980374,220.732868 C949.490972,220.732868 950.945254,220.494632 952.220649,219.998309 C953.542422,219.521838 954.672058,218.767426 955.622807,217.725147 C956.616621,216.735809 957.378546,215.425515 957.898642,213.870368 C958.435302,212.301985 958.716882,210.455662 958.716882,208.304926 C958.716882,206.1575 958.435302,204.30125 957.898642,202.756029 M934.557254,202.448309 C935.279425,200.740956 936.263302,199.275147 937.538697,198.080662 C938.797529,196.922574 940.347879,196.006029 942.110243,195.380662 C943.909047,194.791691 945.860236,194.4575 947.980374,194.4575 C950.103824,194.4575 952.078202,194.791691 953.860443,195.380662 C955.662559,196.006029 957.189721,196.922574 958.465116,198.080662 C959.730573,199.275147 960.734326,200.740956 961.443247,202.448309 C962.175357,204.158971 962.503315,206.114485 962.503315,208.304926 C962.503315,210.505294 962.175357,212.454191 961.443247,214.181397 C960.734326,215.885441 959.730573,217.357868 958.465116,218.5325 C957.189721,219.723676 955.662559,220.597206 953.860443,221.182868 C952.078202,221.765221 950.103824,222.056397 947.980374,222.056397 C945.860236,222.056397 943.909047,221.765221 942.110243,221.182868 C940.347879,220.597206 938.797529,219.723676 937.538697,218.5325 C936.263302,217.357868 935.279425,215.885441 934.557254,214.181397 C933.848333,212.454191 933.470683,210.505294 933.470683,208.304926 C933.470683,206.114485 933.848333,204.158971 934.557254,202.448309" id="Fill-46"></path>
            </g>
        </g>
    </g>
</svg>