<?xml version="1.0" encoding="UTF-8"?>
<svg width="219px" height="153px" viewBox="0 0 219 153" version="1.1" xmlns="http://www.w3.org/2000/svg" xmlns:xlink="http://www.w3.org/1999/xlink">
    <!-- Generator: Sketch 42 (36781) - http://www.bohemiancoding.com/sketch -->
    <title>Altamira</title>
    <desc>Created with Sketch.</desc>
    <defs></defs>
    <g id="Page-1" stroke="none" stroke-width="1" fill="none" fill-rule="evenodd">
        <g id="Altamira" fill="#51287F">
            <path d="M113.129729,130.234042 C110.679937,128.47175 106.318896,124.2505 100.862437,118.574042 C94.4938958,124.197792 86.2095208,126.443625 78.7043125,123.709667 C78.3491042,123.565292 77.9961875,123.3705 77.6409792,123.189458 C92.9538958,139.593208 107.004104,152.444875 112.662229,152.458625 C116.580979,152.745083 150.309729,125.916542 175.579937,103.588833 C169.199937,105.174667 162.430354,103.384875 156.820354,99.136125 C142.350771,111.314042 124.500979,122.609667 113.129729,130.234042 Z" id="Fill-102"></path>
            <path d="M96.4771042,113.9105 C78.2262708,94.3557083 51.6291875,63.04925 39.3504375,46.5813333 C50.2381458,49.3244583 79.6654375,54.3500833 105.941688,52.0263333 C109.021688,51.7490417 112.195646,51.382375 115.365021,50.9882083 C114.911271,29.891125 101.404188,12.4309167 83.2885625,10.85425 C81.9891875,10.737375 80.7287708,10.7144583 79.4225208,10.7602917 C79.5348125,10.737375 79.6654375,10.7007083 79.7777292,10.668625 C70.1000208,11.0971667 60.3329375,11.218625 50.7331458,10.813 C21.5350208,9.07591667 0.965020833,0.328625 0.965020833,0.328625 L0.6510625,2.844875 C-1.52602083,21.2057083 20.0958542,53.7313333 42.6206458,82.27175 C50.5681458,92.33675 60.1679375,103.8455 69.7814792,114.572792 C70.0885625,114.797375 70.3406458,115.042583 70.6546042,115.269458 C78.1598125,120.409667 88.2568958,119.518208 96.4771042,113.9105 Z" id="Fill-104"></path>
            <path d="M197.712167,9.40729167 C181.420708,-0.132916667 144.252167,5.79104167 102.873833,9.16666667 C117.643625,15.1135417 125.80425,31.8358333 123.746333,49.8529167 C150.588625,46.0625 176.198,41.9122917 180.192375,62.865 C182.050917,72.593125 173.761958,83.8177083 161.948417,94.6504167 C169.843208,98.9472917 178.966333,99.1352083 185.788625,94.2264583 C186.242375,93.9079167 186.66175,93.548125 187.067375,93.1883333 C193.360292,87.346875 198.374458,82.3075 201.190917,78.8952083 C211.462167,66.4422917 220.296542,49.6122917 218.053,36.245 C216.22425,25.1808333 207.921542,14.5910417 197.712167,9.40729167 Z" id="Fill-106"></path>
        </g>
    </g>
</svg>